<?xml version="1.0" encoding="utf-8"?>
<!-- Generator: Adobe Illustrator 23.0.0, SVG Export Plug-In . SVG Version: 6.00 Build 0)  -->
<svg version="1.1" id="Layer_1" xmlns="http://www.w3.org/2000/svg" xmlns:xlink="http://www.w3.org/1999/xlink" x="0px" y="0px"
	 viewBox="0 0 1280 1024" style="enable-background:new 0 0 1280 1024;" xml:space="preserve">
<style type="text/css">
	.st0{fill:#631AD6;}
	.st1{fill:none;stroke:#000000;stroke-miterlimit:10;}
	.st2{fill:#FFFFFF;stroke:#000000;stroke-miterlimit:10;}
</style>
<g id="XMLID_1_">
	<g>
		<path class="st0" d="M1078,321.99v250.02c-29.32,0.27-53,24.11-53,53.49c0,0.17,0.01,0.33,0.01,0.5H288.99
			c0-0.17,0.01-0.33,0.01-0.5c0-29.55-23.95-53.5-53.5-53.5c-0.17,0-0.33,0.01-0.5,0.01V322.99c0.17,0,0.33,0.01,0.5,0.01
			c29.55,0,53.5-23.95,53.5-53.5c0-0.17-0.01-0.33-0.01-0.5h736.02C1025.28,298.15,1048.85,321.72,1078,321.99z"/>
	</g>
	<g>
		<path class="st1" d="M1025.01,269H288.99c0,0.17,0.01,0.33,0.01,0.5c0,29.55-23.95,53.5-53.5,53.5c-0.17,0-0.33-0.01-0.5-0.01
			v249.02c0.17,0,0.33-0.01,0.5-0.01c29.55,0,53.5,23.95,53.5,53.5c0,0.17-0.01,0.33-0.01,0.5h736.02c0-0.17-0.01-0.33-0.01-0.5
			c0-29.38,23.68-53.22,53-53.49V321.99C1048.85,321.72,1025.28,298.15,1025.01,269z"/>
	</g>
</g>
<g id="XMLID_2_">
	<g>
		<rect x="305" y="302" class="st0" width="706" height="283"/>
	</g>
	<g>
		<rect x="305" y="302" class="st1" width="706" height="283"/>
	</g>
</g>
<line class="st2" x1="400.58" y1="302" x2="400.5" y2="584.5"/>
<line class="st2" x1="912.21" y1="302" x2="912.21" y2="584.5"/>
</svg>
