<?xml version="1.0" encoding="utf-8"?>
<!-- Generator: Adobe Illustrator 23.0.0, SVG Export Plug-In . SVG Version: 6.00 Build 0)  -->
<svg version="1.1" id="Layer_1" xmlns="http://www.w3.org/2000/svg" xmlns:xlink="http://www.w3.org/1999/xlink" x="0px" y="0px"
	 viewBox="0 0 1280 1024" style="enable-background:new 0 0 1280 1024;" xml:space="preserve">
<style type="text/css">
	.st0{fill:#631AD6;}
	.st1{fill:none;stroke:#000000;stroke-miterlimit:10;}
</style>
<g id="XMLID_1_">
	<g>
		<path class="st0" d="M664.17,390.57l6.67,15.47c-4.36,2.46-8.95,4.56-13.73,6.27L664.17,390.57z"/>
		<path class="st0" d="M627.5,404.5l4.86,12.83c-1.77,0.12-3.56,0.17-5.36,0.17c-1.95,0-3.9-0.06-5.82-0.19L627.5,404.5z"/>
		<polygon class="st0" points="627.5,305.5 636.26,325.82 622.69,315.66 		"/>
		<polygon class="st0" points="636.26,325.82 658.04,376.35 613.5,351.5 		"/>
		<path class="st0" d="M627,238.5c49.43,0,89.5,40.07,89.5,89.5c0,33.5-18.41,62.71-45.66,78.04l-6.67-15.47l-6.13-14.22
			l-21.78-50.53l-8.76-20.32l-4.81,10.16l-42.05,88.91c-25.86-15.69-43.14-44.11-43.14-76.57C537.5,278.57,577.57,238.5,627,238.5z"
			/>
		<polygon class="st0" points="818.65,740.77 791.08,827.08 725.5,704.5 		"/>
		<polygon class="st0" points="950.5,990.5 878.5,990.5 859.14,954.31 		"/>
		<polygon class="st0" points="891.58,878.9 859.14,954.31 791.08,827.08 		"/>
		<polygon class="st0" points="388.9,946.46 367.5,990.5 303.5,990.5 		"/>
		<polygon class="st0" points="440.74,839.8 388.9,946.46 356.84,877.73 		"/>
		<polygon class="st0" points="494.74,728.69 440.74,839.8 407.11,771.44 		"/>
		<polygon class="st0" points="560.72,539.73 519.79,622.61 497.38,580.61 		"/>
		<polygon class="st0" points="600.33,459.52 560.73,539.71 547.01,475.67 		"/>
		<path class="st0" d="M657.11,412.31l-12.31,37.88l-12.44-32.86C641,416.83,649.3,415.1,657.11,412.31z"/>
		<path class="st0" d="M621.18,417.31l-20.85,42.21l-14.38-51.97C596.62,413.07,608.54,416.5,621.18,417.31z"/>
		<path class="st0" d="M658.04,376.35l6.13,14.22l-7.06,21.74c-7.81,2.79-16.11,4.52-24.75,5.02l-4.86-12.83l-6.32,12.81
			c-12.64-0.81-24.56-4.24-35.23-9.76l-0.84-3.05L658.04,376.35z"/>
		<polygon class="st0" points="701.84,477.96 683.02,551.15 644.8,450.19 		"/>
		<polygon class="st0" points="754.76,600.72 725.5,704.5 684.87,647.5 719.5,647.5 683.02,551.15 		"/>
		<polygon class="st0" points="684.87,647.5 627,704.5 583.84,647.5 		"/>
		<polygon points="684.87,647.5 725.5,704.5 627,704.5 		"/>
		<polygon points="583.84,647.5 627,704.5 507.5,704.5 		"/>
		<polygon points="891.58,878.9 950.5,990.5 859.14,954.31 		"/>
		<polygon points="818.65,740.77 891.58,878.9 791.08,827.08 		"/>
		<polygon points="799.5,704.5 818.65,740.77 725.5,704.5 754.76,600.72 		"/>
		<polygon points="701.84,477.96 754.76,600.72 683.02,551.15 		"/>
		<path d="M670.84,406.04l31,71.92l-57.04-27.77l12.31-37.88C661.89,410.6,666.48,408.5,670.84,406.04z"/>
		<path class="st0" d="M658.04,376.35l-72.93,28.15l0.84,3.05c-1.81-0.93-3.58-1.93-5.31-2.98l42.05-88.91l13.57,10.16L613.5,351.5
			L658.04,376.35z"/>
		<path d="M585.95,407.55l14.38,51.97l-53.32,16.15l33.63-71.1C582.37,405.62,584.14,406.62,585.95,407.55z"/>
		<polygon points="547.01,475.67 560.73,539.71 560.73,539.72 560.72,539.73 497.38,580.61 		"/>
		<polygon points="497.38,580.61 519.79,622.61 461.5,656.46 		"/>
		<polygon points="407.11,771.44 440.74,839.8 356.84,877.73 		"/>
		<polygon points="356.84,877.73 388.9,946.46 303.5,990.5 		"/>
		<polygon class="st0" points="583.84,647.5 507.5,704.5 506.5,704.5 494.74,728.69 461.5,656.46 519.79,622.61 507.5,647.5 		"/>
		<polygon points="461.5,656.46 494.74,728.69 407.11,771.44 		"/>
	</g>
	<g>
		<polygon class="st1" points="303.5,990.5 367.5,990.5 388.9,946.46 440.74,839.8 494.74,728.69 506.5,704.5 507.5,704.5 
			627,704.5 725.5,704.5 791.08,827.08 859.14,954.31 878.5,990.5 950.5,990.5 891.58,878.9 818.65,740.77 799.5,704.5 
			754.76,600.72 701.84,477.96 670.84,406.04 664.17,390.57 658.04,376.35 636.26,325.82 627.5,305.5 622.69,315.66 580.64,404.57 
			547.01,475.67 497.38,580.61 461.5,656.46 407.11,771.44 356.84,877.73 		"/>
		<polyline class="st1" points="560.72,539.73 519.79,622.61 507.5,647.5 583.84,647.5 684.87,647.5 719.5,647.5 683.02,551.15 
			644.8,450.19 632.36,417.33 627.5,404.5 621.18,417.31 600.33,459.52 560.73,539.71 		"/>
		<polyline class="st1" points="303.5,990.5 388.9,946.46 356.84,877.73 440.74,839.8 407.11,771.44 494.74,728.69 461.5,656.46 
			519.79,622.61 497.38,580.61 560.72,539.73 560.73,539.72 560.73,539.71 547.01,475.67 600.33,459.52 585.95,407.55 585.11,404.5 
			658.04,376.35 613.5,351.5 636.26,325.82 622.69,315.66 		"/>
		<polyline class="st1" points="950.5,990.5 859.14,954.31 891.58,878.9 791.08,827.08 818.65,740.77 725.5,704.5 754.76,600.72 
			683.02,551.15 701.84,477.96 644.8,450.19 657.11,412.31 664.17,390.57 		"/>
		<path class="st1" d="M580.64,404.57c-25.86-15.69-43.14-44.11-43.14-76.57c0-49.43,40.07-89.5,89.5-89.5s89.5,40.07,89.5,89.5
			c0,33.5-18.41,62.71-45.66,78.04c-4.36,2.46-8.95,4.56-13.73,6.27c-7.81,2.79-16.11,4.52-24.75,5.02
			c-1.77,0.12-3.56,0.17-5.36,0.17c-1.95,0-3.9-0.06-5.82-0.19c-12.64-0.81-24.56-4.24-35.23-9.76
			C584.14,406.62,582.37,405.62,580.64,404.57z"/>
		<path class="st1" d="M428.5,364.5c8.31-107.43,99.47-189.38,203-187c97.39,2.24,181.32,78.53,193,179"/>
		<path class="st1" d="M251.5,364.5c33.93-207.28,219.26-352.59,416-338c176.87,13.11,327.78,152.84,357,338"/>
		<polyline class="st1" points="507.5,704.5 583.84,647.5 627,704.5 684.87,647.5 725.5,704.5 		"/>
	</g>
</g>
</svg>
