<?xml version="1.0" encoding="utf-8"?>
<!-- Generator: Adobe Illustrator 23.0.0, SVG Export Plug-In . SVG Version: 6.00 Build 0)  -->
<svg version="1.1" id="Layer_1" xmlns="http://www.w3.org/2000/svg" xmlns:xlink="http://www.w3.org/1999/xlink" x="0px" y="0px"
	 viewBox="0 0 1280 1024" style="enable-background:new 0 0 1280 1024;" xml:space="preserve">
<style type="text/css">
	.st0{fill:#E5EF1B;}
	.st1{fill:#B5B5B0;}
	.st2{fill:#631AD6;}
	.st3{fill:none;stroke:#000000;stroke-miterlimit:10;}
</style>
<g id="XMLID_1_">
	<g>
		<polygon points="692,554 692,585 551,585 551,554 683,554 689,554 		"/>
		<polygon class="st0" points="692,444 692,542 689,542 683,542 551,542 551,444 678,444 687,444 		"/>
		<polygon points="692,403 692,435 687,435 678,435 411,435 402,435 400,435 400,403 		"/>
		<rect x="683" y="542" class="st1" width="6" height="12"/>
		<rect x="678" y="435" class="st1" width="9" height="9"/>
		<polygon points="554,647.72 554,663 553.72,663 551,660.28 551,656 546.72,656 545.5,654.78 545.57,654.71 545.5,654.64 
			553.21,646.93 		"/>
		<polygon class="st2" points="554,663 554,647.72 728.57,822.29 720.79,830.07 553.72,663 		"/>
		<polygon class="st2" points="553.72,663 551,663 551,660.28 		"/>
		<rect x="540" y="663" class="st2" width="11" height="108"/>
		<polygon class="st2" points="551,660.28 551,663 540,663 540,660.28 544.28,656 546.72,656 		"/>
		<polygon points="551,656 551,660.28 546.72,656 		"/>
		<rect x="540" y="585" class="st2" width="11" height="61"/>
		<rect x="540" y="554" width="11" height="31"/>
		<rect x="540" y="542" class="st2" width="11" height="12"/>
		<rect x="540" y="444" class="st0" width="11" height="98"/>
		<polygon class="st2" points="546.72,656 544.28,656 545.5,654.78 		"/>
		
			<rect x="545.45" y="654.66" transform="matrix(0.7071 -0.7071 0.7071 0.7071 -303.1766 577.4869)" class="st2" width="0.1" height="0.1"/>
		<polygon points="545.5,654.64 545.43,654.71 545.5,654.78 544.28,656 540,656 540,660.28 538,662.28 538,647.14 		"/>
		<polygon points="544.28,656 540,660.28 540,656 		"/>
		<polygon class="st2" points="540,660.28 540,663 538,663 538,662.28 		"/>
		<polygon points="540,554 540,585 400,585 400,554 405,554 		"/>
		<polygon class="st0" points="540,444 540,542 405,542 400,542 400,444 402,444 411,444 		"/>
		<polygon class="st2" points="551,646 554,646 554,647.72 553.21,646.93 545.5,654.64 538,647.14 538,646 540,646 		"/>
		<polygon class="st2" points="538,647.14 538,662.28 370.21,830.07 362.43,822.29 537.79,646.93 		"/>
		<rect x="402" y="435" class="st1" width="9" height="9"/>
		<rect x="400" y="542" class="st1" width="5" height="12"/>
	</g>
	<g>
		<polyline class="st3" points="551,663 551,771 540,771 540,663 		"/>
		<polyline class="st3" points="538,647.14 537.79,646.93 362.43,822.29 370.21,830.07 538,662.28 		"/>
		<polyline class="st3" points="553.72,663 720.79,830.07 728.57,822.29 554,647.72 		"/>
		<polyline class="st3" points="551,646 554,646 554,647.72 554,663 553.72,663 551,663 540,663 538,663 538,662.28 538,647.14 
			538,646 540,646 		"/>
		<line class="st3" x1="551" y1="554" x2="551" y2="542"/>
		<polyline class="st3" points="540,585 540,646 551,646 551,585 		"/>
		<line class="st3" x1="540" y1="542" x2="540" y2="554"/>
		<polyline class="st3" points="411,444 540,444 551,444 678,444 		"/>
		<polyline class="st3" points="400,542 400,444 402,444 		"/>
		<polyline class="st3" points="683,542 551,542 540,542 405,542 		"/>
		<polyline class="st3" points="687,444 692,444 692,542 689,542 		"/>
		<line class="st3" x1="411" y1="435" x2="678" y2="435"/>
		<polyline class="st3" points="687,435 692,435 692,403 400,403 400,435 402,435 		"/>
		<polyline class="st3" points="405,554 540,554 551,554 683,554 		"/>
		<polyline class="st3" points="689,554 692,554 692,585 551,585 540,585 400,585 400,554 		"/>
		<rect x="400" y="542" class="st3" width="5" height="12"/>
		<rect x="683" y="542" class="st3" width="6" height="12"/>
		<rect x="678" y="435" class="st3" width="9" height="9"/>
		<rect x="402" y="435" class="st3" width="9" height="9"/>
	</g>
</g>
</svg>
