<?xml version="1.0" encoding="utf-8"?>
<!-- Generator: Adobe Illustrator 23.0.0, SVG Export Plug-In . SVG Version: 6.00 Build 0)  -->
<svg version="1.1" id="Layer_1" xmlns="http://www.w3.org/2000/svg" xmlns:xlink="http://www.w3.org/1999/xlink" x="0px" y="0px"
	 viewBox="0 0 1280 1024" style="enable-background:new 0 0 1280 1024;" xml:space="preserve">
<style type="text/css">
	.st0{fill:#631AD6;}
	.st1{fill:#631AD6;stroke:#000000;stroke-miterlimit:10;}
</style>
<g>
	<path class="st0" d="M514.89,913.5c-76.31,0-138.39-15.35-138.39-34.22s62.08-34.22,138.39-34.22s138.39,15.35,138.39,34.22
		S591.2,913.5,514.89,913.5z"/>
	<path d="M514.89,845.56c37.02,0,71.81,3.6,97.97,10.14c25.37,6.34,39.92,14.94,39.92,23.58c0,8.64-14.55,17.24-39.92,23.58
		C586.7,909.4,551.91,913,514.89,913s-71.81-3.6-97.97-10.14c-25.37-6.34-39.92-14.94-39.92-23.58c0-8.64,14.55-17.24,39.92-23.58
		C443.08,849.16,477.87,845.56,514.89,845.56 M514.89,844.56c-76.71,0-138.89,15.55-138.89,34.72c0,19.18,62.18,34.72,138.89,34.72
		s138.89-15.55,138.89-34.72C653.78,860.1,591.6,844.56,514.89,844.56L514.89,844.56z"/>
</g>
<g>
	<path class="st0" d="M425.89,625.31c-19.57,0-35.5-15.92-35.5-35.5V200c0-19.57,15.93-35.5,35.5-35.5h178
		c19.57,0,35.5,15.93,35.5,35.5v389.81c0,19.58-15.92,35.5-35.5,35.5H425.89z"/>
	<path d="M603.89,165c19.3,0,35,15.7,35,35v389.81c0,19.3-15.7,35-35,35h-178c-19.3,0-35-15.7-35-35V200c0-19.3,15.7-35,35-35
		H603.89 M603.89,164h-178c-19.88,0-36,16.12-36,36v389.81c0,19.88,16.12,36,36,36h178c19.88,0,36-16.12,36-36V200
		C639.89,180.12,623.77,164,603.89,164L603.89,164z"/>
</g>
<line class="st1" x1="389.89" y1="370.56" x2="639.89" y2="370.56"/>
<line class="st1" x1="389.89" y1="353.85" x2="639.89" y2="353.85"/>
<line class="st1" x1="389.89" y1="335.03" x2="639.89" y2="335.03"/>
<line class="st1" x1="389.89" y1="320.25" x2="639.89" y2="320.25"/>
<line class="st1" x1="389.89" y1="301.43" x2="639.89" y2="301.43"/>
<line class="st1" x1="391.63" y1="280.32" x2="640" y2="280.5"/>
<line class="st1" x1="391" y1="261.5" x2="640" y2="262.5"/>
<polyline class="st1" points="391,242.5 639.5,242.5 627.74,242.13 "/>
<line class="st1" x1="391" y1="223.5" x2="639" y2="224.5"/>
<line class="st1" x1="391" y1="204.5" x2="639" y2="203.5"/>
<line class="st1" x1="392" y1="188.5" x2="638" y2="189.5"/>
<line class="st1" x1="403" y1="173.5" x2="626" y2="172.5"/>
<line class="st1" x1="627.46" y1="370.56" x2="627.5" y2="174"/>
<line class="st1" x1="616.5" y1="167" x2="617.32" y2="370.6"/>
<line class="st1" x1="601.5" y1="164.5" x2="606.17" y2="370.6"/>
<line class="st1" x1="584.5" y1="165" x2="586.91" y2="370.56"/>
<line class="st1" x1="557.5" y1="165" x2="557.12" y2="370.6"/>
<line class="st1" x1="572.5" y1="165" x2="571.68" y2="370.56"/>
<line class="st1" x1="540.5" y1="165" x2="540.76" y2="370.56"/>
<line class="st1" x1="530.5" y1="165" x2="529.34" y2="370.6"/>
<line class="st1" x1="520.5" y1="165" x2="519.26" y2="370.56"/>
<line class="st1" x1="506.5" y1="165" x2="503.35" y2="370.56"/>
<line class="st1" x1="499.5" y1="164.5" x2="495.51" y2="370.56"/>
<line class="st1" x1="488.5" y1="165" x2="485.88" y2="370.56"/>
<line class="st1" x1="478.5" y1="165" x2="475.13" y2="370.56"/>
<line class="st1" x1="468.5" y1="164.5" x2="463.25" y2="370.56"/>
<line class="st1" x1="458.5" y1="164.5" x2="452.28" y2="370.6"/>
<line class="st1" x1="443.5" y1="164.5" x2="439.73" y2="370.56"/>
<line class="st1" x1="433.5" y1="164.5" x2="428.53" y2="370.56"/>
<line class="st1" x1="420.5" y1="165" x2="419.57" y2="370.6"/>
<line class="st1" x1="412.5" y1="167.5" x2="408.61" y2="370.56"/>
<line class="st1" x1="401.5" y1="175" x2="398.57" y2="370.6"/>
<circle class="st1" cx="514.89" cy="434.83" r="36.46"/>
<circle class="st1" cx="514.89" cy="539" r="36.46"/>
<path class="st1" d="M853.43,853.24"/>
<path class="st1" d="M815.24,832.4"/>
<path class="st1" d="M540.93,624.07c39.81-5,93.4-5.97,152.78,10.42c178.7,49.33,259.34,214.37,274.31,246.53l-10.42,17.36
	c-14.97-32.16-95.61-197.2-274.31-246.53c-59.38-16.39-112.97-15.42-152.78-10.42L540.93,624.07z"/>
<g>
	<rect x="491.08" y="622.83" class="st0" width="47.61" height="255.94"/>
	<path d="M538.19,623.33v254.94h-46.61V623.33H538.19 M539.19,622.33h-48.61v256.94h48.61V622.33L539.19,622.33z"/>
</g>
</svg>
