<?xml version="1.0" encoding="utf-8"?>
<!-- Generator: Adobe Illustrator 23.0.0, SVG Export Plug-In . SVG Version: 6.00 Build 0)  -->
<svg version="1.1" id="Layer_1" xmlns="http://www.w3.org/2000/svg" xmlns:xlink="http://www.w3.org/1999/xlink" x="0px" y="0px"
	 viewBox="0 0 1280 1024" style="enable-background:new 0 0 1280 1024;" xml:space="preserve">
<style type="text/css">
	.st0{fill:#631AD6;}
	.st1{fill:#E21B1B;}
	.st2{fill:#1A98E5;}
	.st3{fill:#FFFFFF;}
	.st4{fill:none;stroke:#000000;stroke-miterlimit:10;}
</style>
<g id="XMLID_1_">
	<g>
		<path class="st0" d="M1080.55,281.96c5.04,3.86,6,11.08,2.13,16.12c-3.86,5.05-11.08,6-16.12,2.14l-31.93-24.44l13.22-17.26
			l-10.33-7.91c1.73,0.3,3.42,1.02,4.92,2.17L1080.55,281.96z"/>
		<path class="st0" d="M1047.85,258.52l-13.22,17.26l-6.18-4.74c-2.95-2.26-4.51-5.68-4.51-9.13c0-2.44,0.78-4.9,2.38-6.99
			c2.72-3.55,7.09-5.08,11.2-4.31L1047.85,258.52z"/>
		<path class="st0" d="M883,440.87l148.97-194.51l5.55,4.25c-4.11-0.77-8.48,0.76-11.2,4.31c-1.6,2.09-2.38,4.55-2.38,6.99
			c0,3.45,1.56,6.87,4.51,9.13l6.18,4.74L883,473.76V440.87z"/>
		<path class="st0" d="M883,473.76V526H657v-54v-22v-47h226v37.87l-18.85,24.61l15.88,12.16L883,473.76z M860,508v-87H678v87H860z"
			/>
		<polygon class="st0" points="883,440.87 883,473.76 880.03,477.64 864.15,465.48 		"/>
		<rect x="678" y="421" class="st1" width="182" height="87"/>
		<rect x="593" y="450" class="st0" width="64" height="22"/>
		<path class="st0" d="M593,472v54H367v-57.24l2.66,3.43l15.8-12.26L367,436.12V403h226v47V472z M572,508v-87H390v87H572z"/>
		<rect x="390" y="421" class="st2" width="182" height="87"/>
		<polygon class="st0" points="367,436.12 385.46,459.93 369.66,472.19 367,468.76 		"/>
		<path class="st0" d="M367,436.12v32.64L214.83,272.5l6.8-5.03c4.57-3.38,5.91-9.49,3.44-14.4L367,436.12z"/>
		<path class="st0" d="M225.07,253.07c2.47,4.91,1.13,11.02-3.44,14.4l-6.8,5.03l-14.1-18.18l7.22-5.34
			c2.06-1.52,4.46-2.26,6.83-2.26c2.73,0,5.43,0.97,7.56,2.82L225.07,253.07z"/>
		<path class="st3" d="M225.07,253.07l-2.73-3.53c0.62,0.54,1.19,1.15,1.7,1.84C224.44,251.92,224.79,252.49,225.07,253.07z"/>
		<path class="st0" d="M216.34,241.81l6,7.73c-2.13-1.85-4.83-2.82-7.56-2.82c-2.37,0-4.77,0.74-6.83,2.26l-7.22,5.34l-0.19-0.25
			L216.34,241.81z"/>
		<path class="st0" d="M200.73,254.32l14.1,18.18l-31.78,23.52c-5.11,3.78-12.31,2.7-16.09-2.4c-3.77-5.11-2.7-12.31,2.41-16.09
			L200.73,254.32z"/>
	</g>
	<g>
		<line class="st4" x1="225.07" y1="253.07" x2="367" y2="436.12"/>
		<polyline class="st4" points="200.73,254.32 200.54,254.07 216.34,241.81 222.34,249.54 		"/>
		<line class="st4" x1="367" y1="468.76" x2="214.83" y2="272.5"/>
		<line class="st4" x1="1034.63" y1="275.78" x2="883" y2="473.76"/>
		<polyline class="st4" points="883,440.87 1031.97,246.36 1037.52,250.61 		"/>
		<polyline class="st4" points="593,472 593,526 367,526 367,468.76 367,436.12 367,403 593,403 593,450 		"/>
		<rect x="390" y="421" class="st4" width="182" height="87"/>
		<polyline class="st4" points="657,450 657,403 883,403 883,440.87 883,473.76 883,526 657,526 657,472 		"/>
		<rect x="593" y="450" class="st4" width="64" height="22"/>
		<path class="st4" d="M1034.63,275.78l31.93,24.44c5.04,3.86,12.26,2.91,16.12-2.14c3.87-5.04,2.91-12.26-2.13-16.12l-38.11-29.18
			c-1.5-1.15-3.19-1.87-4.92-2.17c-4.11-0.77-8.48,0.76-11.2,4.31c-1.6,2.09-2.38,4.55-2.38,6.99c0,3.45,1.56,6.87,4.51,9.13
			L1034.63,275.78z"/>
		<path class="st4" d="M200.73,254.32l-31.36,23.21c-5.11,3.78-6.18,10.98-2.41,16.09c3.78,5.1,10.98,6.18,16.09,2.4l31.78-23.52
			l6.8-5.03c4.57-3.38,5.91-9.49,3.44-14.4c-0.28-0.58-0.63-1.15-1.03-1.69c-0.51-0.69-1.08-1.3-1.7-1.84
			c-2.13-1.85-4.83-2.82-7.56-2.82c-2.37,0-4.77,0.74-6.83,2.26L200.73,254.32z"/>
		<rect x="678" y="421" class="st4" width="182" height="87"/>
	</g>
</g>
</svg>
