<svg version="1.1" id="el_B11AQaIhm" xmlns="http://www.w3.org/2000/svg" xmlns:xlink="http://www.w3.org/1999/xlink" x="0px" y="0px" viewBox="0 0 600 600" style="enable-background:new 0 0 1280 1024;" xml:space="preserve"><style>@-webkit-keyframes el_Hk2k076U37_rJTJE6Ln7_Animation{0%{-webkit-transform: translate(306.5900115966797px, 390.75px) scale(0.5, 0.5) translate(-306.5900115966797px, -390.75px);transform: translate(306.5900115966797px, 390.75px) scale(0.5, 0.5) translate(-306.5900115966797px, -390.75px);}100%{-webkit-transform: translate(306.5900115966797px, 390.75px) scale(1, 1) translate(-306.5900115966797px, -390.75px);transform: translate(306.5900115966797px, 390.75px) scale(1, 1) translate(-306.5900115966797px, -390.75px);}}@keyframes el_Hk2k076U37_rJTJE6Ln7_Animation{0%{-webkit-transform: translate(306.5900115966797px, 390.75px) scale(0.5, 0.5) translate(-306.5900115966797px, -390.75px);transform: translate(306.5900115966797px, 390.75px) scale(0.5, 0.5) translate(-306.5900115966797px, -390.75px);}100%{-webkit-transform: translate(306.5900115966797px, 390.75px) scale(1, 1) translate(-306.5900115966797px, -390.75px);transform: translate(306.5900115966797px, 390.75px) scale(1, 1) translate(-306.5900115966797px, -390.75px);}}@-webkit-keyframes el_Hk2k076U37_B1iy4TUhQ_Animation{0%{-webkit-transform: translate(306.5900115966797px, 390.75px) rotate(0deg) translate(-306.5900115966797px, -390.75px);transform: translate(306.5900115966797px, 390.75px) rotate(0deg) translate(-306.5900115966797px, -390.75px);}100%{-webkit-transform: translate(306.5900115966797px, 390.75px) rotate(360deg) translate(-306.5900115966797px, -390.75px);transform: translate(306.5900115966797px, 390.75px) rotate(360deg) translate(-306.5900115966797px, -390.75px);}}@keyframes el_Hk2k076U37_B1iy4TUhQ_Animation{0%{-webkit-transform: translate(306.5900115966797px, 390.75px) rotate(0deg) translate(-306.5900115966797px, -390.75px);transform: translate(306.5900115966797px, 390.75px) rotate(0deg) translate(-306.5900115966797px, -390.75px);}100%{-webkit-transform: translate(306.5900115966797px, 390.75px) rotate(360deg) translate(-306.5900115966797px, -390.75px);transform: translate(306.5900115966797px, 390.75px) rotate(360deg) translate(-306.5900115966797px, -390.75px);}}#el_B11AQaIhm *{-webkit-animation-duration: 3s;animation-duration: 3s;-webkit-animation-iteration-count: infinite;animation-iteration-count: infinite;-webkit-animation-timing-function: cubic-bezier(0, 0, 1, 1);animation-timing-function: cubic-bezier(0, 0, 1, 1);}#el_By-yRmaI2m{fill: #631AD6;}#el_SkHJRmTU2m{fill: #631AD6;}#el_H1LJAQaLhQ{fill: #631AD6;}#el_BJvyAX6Ihm{fill: #631AD6;}#el_Bkok07682Q{fill: #631AD6;}#el_Hk2k076U37{fill: #631AD6;}#el_Hk2k076U37_B1iy4TUhQ{-webkit-animation-name: el_Hk2k076U37_B1iy4TUhQ_Animation;animation-name: el_Hk2k076U37_B1iy4TUhQ_Animation;-webkit-transform: translate(306.5900115966797px, 390.75px) rotate(0deg) translate(-306.5900115966797px, -390.75px);transform: translate(306.5900115966797px, 390.75px) rotate(0deg) translate(-306.5900115966797px, -390.75px);}#el_Hk2k076U37_rJTJE6Ln7{-webkit-animation-name: el_Hk2k076U37_rJTJE6Ln7_Animation;animation-name: el_Hk2k076U37_rJTJE6Ln7_Animation;-webkit-transform: translate(306.5900115966797px, 390.75px) scale(0.5, 0.5) translate(-306.5900115966797px, -390.75px);transform: translate(306.5900115966797px, 390.75px) scale(0.5, 0.5) translate(-306.5900115966797px, -390.75px);}</style>

<g id="el_rkeJA7TUnQ">
	<path d="M120.5,460.47V321.03c0-28.62,23.2-51.82,51.82-51.82h248.71c28.62,0,51.82,23.2,51.82,51.82v139.45&#10;&#9;&#9;c0,28.62-23.2,51.82-51.82,51.82H172.32C143.7,512.3,120.5,489.09,120.5,460.47z" id="el_By-yRmaI2m"/>
</g>
<g id="el_HJfJR76U27">
	<rect x="156.58" y="302.12" width="287.28" height="177.56" id="el_HkXJR7pU3X"/>
	<path d="M443.36,302.62v176.56H157.08V302.62H443.36 M444.36,301.62H156.08v178.56h288.28V301.62L444.36,301.62z" id="el_SJEyRQTLnm"/>
</g>
<polyline points="423.32,269.2 423.19,264.5 444.62,264.5 444.62,269.2 " id="el_SkHJRmTU2m"/>
<polyline points="156.08,512.3 156.05,517 170.69,517 170.69,512.3 " id="el_H1LJAQaLhQ"/>
<polyline points="178.56,512.3 178.53,517 193.17,517 193.17,512.3 " id="el_BJvyAX6Ihm"/>
<g id="el_rJu1Cm6L2X">
	<path d="M140.37,400.97c-5.49,0-9.96-4.47-9.96-9.96s4.47-9.96,9.96-9.96c5.49,0,9.96,4.47,9.96,9.96S145.85,400.97,140.37,400.97z&#10;&#9;&#9;" id="el_S1t10Q68nX"/>
	<path d="M140.37,381.56c5.21,0,9.46,4.24,9.46,9.46s-4.24,9.46-9.46,9.46c-5.21,0-9.46-4.24-9.46-9.46S135.15,381.56,140.37,381.56&#10;&#9;&#9; M140.37,380.56c-5.77,0-10.46,4.68-10.46,10.46s4.68,10.46,10.46,10.46s10.46-4.68,10.46-10.46S146.14,380.56,140.37,380.56&#10;&#9;&#9;L140.37,380.56z" id="el_B1qyCQaU2m"/>
</g>
<path d="M140.63,396.24L140.63,396.24c-3.03,0-5.49-2.46-5.49-5.49l0,0c0-3.03,2.46-5.49,5.49-5.49h0&#10;&#9;c3.03,0,5.49,2.46,5.49,5.49l0,0C146.12,393.78,143.66,396.24,140.63,396.24z" id="el_Bkok07682Q"/>
<g id="el_Hk2k076U37_B1iy4TUhQ" data-animator-group="true" data-animator-type="1"><g id="el_Hk2k076U37_rJTJE6Ln7" data-animator-group="true" data-animator-type="2"><polygon id="el_Hk2k076U37" points="279.42,445.09 333.76,390.75 279.42,336.41 "/></g></g>
<rect x="453.77" y="372.98" width="5.75" height="36.07" id="el_rka1AQpIn7"/>
</svg>