<svg version="1.1" id="el_S1ttXxaUnQ" xmlns="http://www.w3.org/2000/svg" xmlns:xlink="http://www.w3.org/1999/xlink" x="0px" y="0px" viewBox="0 0 600 600" style="enable-background:new 0 0 1280 1024;" xml:space="preserve"><style>@-webkit-keyframes el_SkRFmgpL27_BkRU-6Inm_Animation{0%{-webkit-transform: translate(59.2400016784668px, 338.07000732421875px) rotate(0deg) translate(-59.2400016784668px, -338.07000732421875px);transform: translate(59.2400016784668px, 338.07000732421875px) rotate(0deg) translate(-59.2400016784668px, -338.07000732421875px);}100%{-webkit-transform: translate(59.2400016784668px, 338.07000732421875px) rotate(360deg) translate(-59.2400016784668px, -338.07000732421875px);transform: translate(59.2400016784668px, 338.07000732421875px) rotate(360deg) translate(-59.2400016784668px, -338.07000732421875px);}}@keyframes el_SkRFmgpL27_BkRU-6Inm_Animation{0%{-webkit-transform: translate(59.2400016784668px, 338.07000732421875px) rotate(0deg) translate(-59.2400016784668px, -338.07000732421875px);transform: translate(59.2400016784668px, 338.07000732421875px) rotate(0deg) translate(-59.2400016784668px, -338.07000732421875px);}100%{-webkit-transform: translate(59.2400016784668px, 338.07000732421875px) rotate(360deg) translate(-59.2400016784668px, -338.07000732421875px);transform: translate(59.2400016784668px, 338.07000732421875px) rotate(360deg) translate(-59.2400016784668px, -338.07000732421875px);}}@-webkit-keyframes el_BJbltmxpI2Q_HkdElaU3m_Animation{0%{-webkit-transform: translate(200.0500030517578px, 338.07000732421875px) rotate(0deg) translate(-200.0500030517578px, -338.07000732421875px);transform: translate(200.0500030517578px, 338.07000732421875px) rotate(0deg) translate(-200.0500030517578px, -338.07000732421875px);}100%{-webkit-transform: translate(200.0500030517578px, 338.07000732421875px) rotate(360deg) translate(-200.0500030517578px, -338.07000732421875px);transform: translate(200.0500030517578px, 338.07000732421875px) rotate(360deg) translate(-200.0500030517578px, -338.07000732421875px);}}@keyframes el_BJbltmxpI2Q_HkdElaU3m_Animation{0%{-webkit-transform: translate(200.0500030517578px, 338.07000732421875px) rotate(0deg) translate(-200.0500030517578px, -338.07000732421875px);transform: translate(200.0500030517578px, 338.07000732421875px) rotate(0deg) translate(-200.0500030517578px, -338.07000732421875px);}100%{-webkit-transform: translate(200.0500030517578px, 338.07000732421875px) rotate(360deg) translate(-200.0500030517578px, -338.07000732421875px);transform: translate(200.0500030517578px, 338.07000732421875px) rotate(360deg) translate(-200.0500030517578px, -338.07000732421875px);}}#el_S1ttXxaUnQ *{-webkit-animation-duration: 3s;animation-duration: 3s;-webkit-animation-iteration-count: infinite;animation-iteration-count: infinite;-webkit-animation-timing-function: cubic-bezier(0, 0, 1, 1);animation-timing-function: cubic-bezier(0, 0, 1, 1);}#el_SyctXgaL27{fill: #5700FF;}#el_ryit7ea83Q{fill: #5700FF;}#el_r1hYQea83X{fill: #5700FF;}#el_HyTFmlaI3Q{fill: #5700FF;}#el_S1JgFXgTUhQ{fill: #5700FF;}#el_BkelFmxpI37{fill: #5700FF;}#el_HJzgt7e6L2m{fill: #5700FF;}#el_B1QetXx68hQ{fill: #5700FF;}#el_BJElY7gaU2X{fill: #5700FF;}#el_BJbltmxpI2Q_HkdElaU3m{-webkit-animation-name: el_BJbltmxpI2Q_HkdElaU3m_Animation;animation-name: el_BJbltmxpI2Q_HkdElaU3m_Animation;}#el_SkRFmgpL27_BkRU-6Inm{-webkit-animation-name: el_SkRFmgpL27_BkRU-6Inm_Animation;animation-name: el_SkRFmgpL27_BkRU-6Inm_Animation;}</style>

<rect x="48.49" y="394.77" width="160.24" height="49.94" id="el_SyctXgaL27"/>
<polygon points="187.22,585.88 128.95,470.73 74.15,585.88 52.65,585.88 128.26,440.21 208.73,585.88 " id="el_ryit7ea83Q"/>
<polyline points="208.73,403.85 230.23,403.79 230.23,435.01 208.73,435.01 " id="el_r1hYQea83X"/>
<polyline points="117.13,394.77 117.16,355.24 98.43,355.24 98.43,331.65 117.16,331.65 140.75,331.65 160.17,331.65 &#10;&#9;160.17,355.24 140.75,355.24 140.4,394.77 " id="el_HyTFmlaI3Q"/>
<g id="el_SkRFmgpL27_BkRU-6Inm" data-animator-group="true" data-animator-type="1"><g id="el_SkRFmgpL27">
	<path d="M78.32,336.16c0-6.87,0.96-13.12,2.53-17.77c-4.67,2.49-12.6,4.13-21.61,4.13c-9.69,0-18.13-1.9-22.61-4.72&#10;&#9;&#9;c2.15,4.75,3.53,12.06,3.53,20.26c0,7.22-1.07,13.74-2.79,18.44c4.63-2.57,12.69-4.28,21.86-4.28c9.9,0,18.51,1.98,22.9,4.9&#10;&#9;&#9;C79.82,352.4,78.32,344.77,78.32,336.16z M59.24,347.4c-5.17,0-9.36-4.18-9.36-9.33s4.19-9.33,9.36-9.33&#10;&#9;&#9;c5.17,0,9.36,4.18,9.36,9.33S64.41,347.4,59.24,347.4z" id="el_S1JgFXgTUhQ"/>
	<path d="M59.24,293.5c-24.71,0-44.74,19.95-44.74,44.57c0,24.61,20.03,44.57,44.74,44.57s44.74-19.95,44.74-44.57&#10;&#9;&#9;C103.98,313.45,83.95,293.5,59.24,293.5z M87.68,362.17c-0.85,0-1.67-0.32-2.45-0.9c0.01,0.1,0.02,0.19,0.02,0.29&#10;&#9;&#9;c0,5.15-11.65,9.33-26.01,9.33c-13.11,0-23.95-3.48-25.75-8c-0.85,0.71-1.76,1.09-2.69,1.09c-5.17,0-9.36-11.6-9.36-25.91&#10;&#9;&#9;c0-14.31,4.19-25.91,9.36-25.91c0.84,0,1.66,0.31,2.44,0.89c0.22-5.09,11.77-9.18,26-9.18c12.68,0,23.24,3.25,25.54,7.56&#10;&#9;&#9;c0.91-0.83,1.89-1.28,2.9-1.28c5.17,0,9.36,11.65,9.36,26.01C97.05,350.53,92.85,362.17,87.68,362.17z" id="el_BkelFmxpI37"/>
</g></g>
<g id="el_BJbltmxpI2Q_HkdElaU3m" data-animator-group="true" data-animator-type="1"><g id="el_BJbltmxpI2Q">
	<path d="M219.13,336.16c0-6.87,0.96-13.12,2.53-17.77c-4.67,2.49-12.6,4.13-21.61,4.13c-9.69,0-18.13-1.9-22.61-4.72&#10;&#9;&#9;c2.15,4.75,3.53,12.06,3.53,20.26c0,7.22-1.07,13.74-2.79,18.44c4.63-2.57,12.69-4.28,21.86-4.28c9.9,0,18.51,1.98,22.9,4.9&#10;&#9;&#9;C220.64,352.4,219.13,344.77,219.13,336.16z M200.05,347.4c-5.17,0-9.36-4.18-9.36-9.33s4.19-9.33,9.36-9.33&#10;&#9;&#9;c5.17,0,9.36,4.18,9.36,9.33S205.23,347.4,200.05,347.4z" id="el_HJzgt7e6L2m"/>
	<path d="M200.05,293.5c-24.71,0-44.74,19.95-44.74,44.57c0,24.61,20.03,44.57,44.74,44.57s44.74-19.95,44.74-44.57&#10;&#9;&#9;C244.8,313.45,224.76,293.5,200.05,293.5z M228.49,362.17c-0.85,0-1.67-0.32-2.45-0.9c0.01,0.1,0.02,0.19,0.02,0.29&#10;&#9;&#9;c0,5.15-11.65,9.33-26.01,9.33c-13.11,0-23.95-3.48-25.75-8c-0.85,0.71-1.76,1.09-2.69,1.09c-5.17,0-9.36-11.6-9.36-25.91&#10;&#9;&#9;c0-14.31,4.19-25.91,9.36-25.91c0.84,0,1.66,0.31,2.44,0.89c0.22-5.09,11.77-9.18,26-9.18c12.68,0,23.24,3.25,25.54,7.56&#10;&#9;&#9;c0.91-0.83,1.89-1.28,2.9-1.28c5.17,0,9.36,11.65,9.36,26.01C237.86,350.53,233.67,362.17,228.49,362.17z" id="el_B1QetXx68hQ"/>
</g></g>
<polyline points="230.23,412.6 310,337.89 310,509.23 230.23,426.29 " id="el_BJElY7gaU2X"/>
</svg>