<?xml version="1.0" encoding="utf-8"?>
<!-- Generator: Adobe Illustrator 23.0.0, SVG Export Plug-In . SVG Version: 6.00 Build 0)  -->
<svg version="1.1" id="Layer_1" xmlns="http://www.w3.org/2000/svg" xmlns:xlink="http://www.w3.org/1999/xlink" x="0px" y="0px"
	 viewBox="0 0 1280 1024" style="enable-background:new 0 0 1280 1024;" xml:space="preserve">
<style type="text/css">
	.st0{fill:#631AD6;}
	.st1{fill:#FFFFFF;}
</style>
<polyline points="472.88,571.83 240,572 240,592 264,592 265,634 240,634 240,654 565.04,654 "/>
<g>
	<circle cx="620.5" cy="459.5" r="185"/>
	<path d="M620.5,275c24.91,0,49.07,4.88,71.82,14.5c21.97,9.29,41.7,22.6,58.65,39.54c16.94,16.94,30.25,36.68,39.54,58.65
		c9.62,22.75,14.5,46.91,14.5,71.82s-4.88,49.07-14.5,71.82c-9.29,21.97-22.6,41.7-39.54,58.65
		c-16.94,16.94-36.68,30.25-58.65,39.54c-22.75,9.62-46.91,14.5-71.82,14.5s-49.07-4.88-71.82-14.5
		c-21.97-9.29-41.7-22.6-58.65-39.54c-16.94-16.94-30.25-36.68-39.54-58.65c-9.62-22.75-14.5-46.91-14.5-71.82
		s4.88-49.07,14.5-71.82c9.29-21.97,22.6-41.7,39.54-58.65c16.94-16.94,36.68-30.25,58.65-39.54C571.43,279.88,595.59,275,620.5,275
		 M620.5,274C518.05,274,435,357.05,435,459.5S518.05,645,620.5,645S806,561.95,806,459.5S722.95,274,620.5,274L620.5,274z"/>
</g>
<g>
	<circle class="st0" cx="640.5" cy="484.5" r="185.5"/>
</g>
<circle cx="640.5" cy="484.5" r="49.5"/>
<circle cx="640.5" cy="366.5" r="62.5"/>
<circle cx="640.5" cy="602.5" r="62.5"/>
<circle cx="757.5" cy="484.5" r="62.5"/>
<rect x="290" y="596" class="st1" width="87" height="34"/>
<rect x="392" y="596" class="st1" width="87" height="34"/>
<circle cx="522.5" cy="484.5" r="62.5"/>
</svg>
