<?xml version="1.0" encoding="utf-8"?>
<!-- Generator: Adobe Illustrator 23.0.0, SVG Export Plug-In . SVG Version: 6.00 Build 0)  -->
<svg version="1.1" id="Layer_1" xmlns="http://www.w3.org/2000/svg" xmlns:xlink="http://www.w3.org/1999/xlink" x="0px" y="0px"
	 viewBox="0 0 1280 1024" style="enable-background:new 0 0 1280 1024;" xml:space="preserve">
<style type="text/css">
	.st0{fill:#631AD6;}
	.st1{fill:#FFFFFF;}
</style>
<path class="st0" d="M830.5,179.5c-31.32,81.21-110.68,318.79,5,515c11.67,19.79,25.8,39.98,43,60h-374
	c-17.2-20.02-31.33-40.21-43-60c-115.68-196.21-36.32-433.79-5-515H830.5z"/>
<path class="st1" d="M745.36,207.5c-19.34,73.16-68.34,287.18,3.09,463.95c7.21,17.83,15.93,36.02,26.55,54.05H544.07
	c-10.62-18.03-19.34-36.22-26.55-54.05c-71.43-176.76-22.43-390.79-3.09-463.95H745.36z"/>
<rect x="426.5" y="272.5" class="st1" width="71" height="12"/>
<rect x="412.5" y="335.5" class="st1" width="75" height="12"/>
<rect x="402.5" y="407.5" class="st1" width="78" height="15"/>
<rect x="402.5" y="478.5" class="st0" width="372.5" height="16"/>
<rect x="407.5" y="543.5" class="st1" width="80" height="16"/>
<rect x="420.5" y="600.5" class="st1" width="77" height="15"/>
<rect x="445.5" y="656.5" class="st1" width="69" height="10"/>
<rect x="471.5" y="704.5" class="st1" width="66" height="13"/>
<g>
	<rect x="730.5" y="272.5" class="st1" width="66" height="16"/>
</g>
<g>
	<rect x="742.5" y="214.5" class="st1" width="66" height="16"/>
</g>
<rect x="443.5" y="211.5" class="st1" width="66" height="16"/>
<rect x="719.5" y="335.5" class="st1" width="65" height="12"/>
<rect x="712.5" y="407.5" class="st1" width="63" height="15"/>
<rect x="717.5" y="543.5" class="st1" width="66" height="16"/>
<g>
	<rect x="726.5" y="599.5" class="st1" width="66" height="16"/>
</g>
<g>
	<rect x="746.5" y="650.5" class="st1" width="69" height="16"/>
</g>
<g>
	<rect x="769.5" y="703.5" class="st1" width="72" height="16"/>
</g>
</svg>
