<?xml version="1.0" encoding="utf-8"?>
<!-- Generator: Adobe Illustrator 23.0.0, SVG Export Plug-In . SVG Version: 6.00 Build 0)  -->
<svg version="1.1" id="Layer_1" xmlns="http://www.w3.org/2000/svg" xmlns:xlink="http://www.w3.org/1999/xlink" x="0px" y="0px"
	 viewBox="0 0 1280 1024" style="enable-background:new 0 0 1280 1024;" xml:space="preserve">
<style type="text/css">
	.st0{fill:#631AD6;}
	.st1{fill:#D6E239;}
	.st2{fill:#FFFFFF;}
	.st3{fill:none;stroke:#000000;stroke-miterlimit:10;}
</style>
<g id="XMLID_1_">
	<g>
		<polygon class="st0" points="612,390 612,482.15 403.03,439.36 288,415.81 288,391 288,366.19 612,298.89 		"/>
		<path class="st1" d="M634,296v94h-2c0-51.91-4.03-94-9-94H634z"/>
		<path class="st1" d="M621.79,296.85c0.39-0.56,0.8-0.85,1.21-0.85c4.97,0,9,42.09,9,94s-4.03,94-9,94c-0.08,0-0.15-0.01-0.23-0.03
			C617.91,482.68,614,441.1,614,390C614,342.4,617.39,303.05,621.79,296.85z"/>
		<path class="st1" d="M622.7,484.34l0.07-0.37c0.08,0.02,0.15,0.03,0.23,0.03c4.97,0,9-42.09,9-94h2v96h-22v-3.85L622.7,484.34z"/>
		<path class="st1" d="M612,296h11c-0.41,0-0.82,0.29-1.21,0.85l-9.79,2.04V296z"/>
		<path class="st1" d="M622.77,483.97l-0.07,0.37l-10.7-2.19V390h2C614,441.1,617.91,482.68,622.77,483.97z"/>
		<path class="st1" d="M612,298.89l9.79-2.04c-4.4,6.2-7.79,45.55-7.79,93.15h-2V298.89z"/>
		<path d="M497.49,459.18l-5.82,29.43l-95.16-18.79l5.82-29.43L497.49,459.18z M482.26,483.67l4.61-23.36l-75.54-14.92l-4.62,23.36
			L482.26,483.67z"/>
		<polygon class="st2" points="486.87,460.31 482.26,483.67 406.71,468.75 411.33,445.39 		"/>
		<path class="st1" d="M288,415.81v9.28h-8V356h8v10.19V391c0-13.81-0.9-25-2-25s-2,11.19-2,25s0.9,25,2,25s2-11.19,2-25V415.81z"/>
		<ellipse class="st1" cx="286" cy="391" rx="2" ry="25"/>
	</g>
	<g>
		<line class="st3" x1="288" y1="366.19" x2="612" y2="298.89"/>
		<polyline class="st3" points="288,415.81 403.03,439.36 612,482.15 		"/>
		<rect x="432" y="416" transform="matrix(0.1937 -0.9811 0.9811 0.1937 -95.2925 813.0513)" class="st3" width="30" height="97"/>
		<polygon class="st3" points="482.26,483.67 406.71,468.75 411.33,445.39 486.87,460.31 		"/>
		<polygon class="st3" points="634,390 634,486 612,486 612,482.15 612,390 612,298.89 612,296 623,296 634,296 		"/>
		<polygon class="st3" points="288,415.81 288,425.09 280,425.09 280,356 288,356 288,366.19 288,391 		"/>
	</g>
</g>
</svg>
