<?xml version="1.0" encoding="utf-8"?>
<!-- Generator: Adobe Illustrator 23.0.0, SVG Export Plug-In . SVG Version: 6.00 Build 0)  -->
<svg version="1.1" id="Layer_1" xmlns="http://www.w3.org/2000/svg" xmlns:xlink="http://www.w3.org/1999/xlink" x="0px" y="0px"
	 viewBox="0 0 1280 1024" style="enable-background:new 0 0 1280 1024;" xml:space="preserve">
<style type="text/css">
	.st0{fill:#F9F319;}
	.st1{fill:#631AD6;}
	.st2{fill:none;stroke:#631AD6;stroke-miterlimit:10;}
	.st3{fill:#F9F319;stroke:#631AD6;stroke-miterlimit:10;}
	.st4{font-family:'MyriadPro-Regular';}
	.st5{font-size:118.1637px;}
	.st6{fill:#FCEF00;}
	.st7{fill:none;stroke:#000000;stroke-miterlimit:10;}
</style>
<g id="XMLID_1_">
	<g>
		<path class="st0" d="M924.38,229.7c-32.77,3.91-70.41,7.21-111.68,9.68c-34.71,2.09-71.99,3.62-111.1,4.49
			c-24.22,0.53-49.13,0.8-74.57,0.8c-12.55,0-24.98-0.07-37.23-0.22c-39.05-0.41-76.63-1.48-112.02-3.13
			c-31.48-1.46-61.24-3.37-88.76-5.68c-40.92-3.42-76.99-7.69-106.56-12.62c-46.55-7.77-77.04-17.14-85.24-27.38l-0.02-0.02
			c-1.46-1.82-2.21-3.69-2.21-5.56c0-30.17,193.43-54.61,432.05-54.61s432.05,24.44,432.05,54.61c0,0.46-0.05,0.95-0.15,1.41
			C1055.94,206.52,1004.84,220.04,924.38,229.7z"/>
		<path d="M924.67,928.78c0.17,0.53,0.27,1.07,0.27,1.6c0,20.78-133.26,37.62-297.63,37.62s-297.63-16.85-297.63-37.62
			c0-0.02,0-0.07,0-0.1c0.17-8.42,22.23-16.19,59.35-22.45c23.84-4,53.86-7.4,88.3-9.93c24.81-1.84,51.89-3.25,80.61-4.1
			c22.26-0.68,45.49-1.04,69.37-1.04c5.7,0,11.38,0.02,17.02,0.07c28.57,0.19,56.07,0.9,81.92,2.06c31.6,1.41,60.78,3.47,86.48,6.07
			c30.41,3.06,55.97,6.87,74.98,11.19C909.5,917.1,922.68,922.76,924.67,928.78z"/>
		<path class="st1" d="M924.38,229.7l-36.41,681.26l-0.27,1.19c-19.01-4.32-44.56-8.13-74.98-11.19V239.83l-0.02-0.44
			C853.96,236.91,891.61,233.61,924.38,229.7z"/>
		<path class="st1" d="M701.63,244.68l24.61,650.21c-25.85-1.17-53.35-1.87-81.92-2.06l0.02-1.29l-54.54-646.86v-0.22
			c12.26,0.15,24.69,0.22,37.23,0.22c25.44,0,50.34-0.27,74.57-0.8L701.63,244.68z"/>
		<path class="st1" d="M557.86,891.54l0.07,2.26c-28.71,0.85-55.8,2.26-80.61,4.1l-88.3-662.25c27.52,2.31,57.28,4.22,88.76,5.68
			L557.86,891.54z"/>
		<path class="st1" d="M282.47,223.03l106.56,684.8c-37.11,6.26-59.18,14.03-59.35,22.45L197.22,195.65
			C205.43,205.89,235.91,215.26,282.47,223.03z"/>
	</g>
	<g>
		<polyline class="st2" points="1060.3,190.07 1060.01,191.67 924.67,928.78 924.38,930.38 		"/>
		<polyline class="st2" points="196.2,190.07 197.2,195.63 197.22,195.65 329.68,930.28 329.7,930.38 		"/>
		<polyline class="st2" points="282.47,223.01 282.47,223.03 389.02,907.83 		"/>
		<polyline class="st2" points="389.02,235.65 477.33,897.9 477.76,901.25 		"/>
		<polyline class="st2" points="477.76,241.04 477.79,241.33 557.86,891.54 		"/>
		<line class="st2" x1="589.81" y1="244.68" x2="644.35" y2="891.54"/>
		<line class="st2" x1="701.63" y1="244.68" x2="726.24" y2="894.89"/>
		<polyline class="st2" points="812.72,239.83 812.72,900.96 812.72,902.46 		"/>
		<polyline class="st2" points="924.38,229.68 924.38,229.7 887.97,910.96 		"/>
	</g>
</g>
<polygon class="st3" points="403.9,442.68 330.71,364.22 428.9,423.27 473.59,302.06 508.64,415.79 622.14,300.3 595.64,407.62 
	689.66,318.34 697.14,398.09 775.37,322.49 775.15,398.08 845.53,342.72 842.67,416.13 927.25,408.19 850.3,471.48 945.54,499.11 
	853.78,534.54 942.98,601.75 842.54,596.54 864.98,679.77 790.13,635.59 736.9,691.79 707.29,636.06 633.36,679.56 595.21,636.82 
	535.78,678.97 504.21,628.3 434.66,666.52 419.32,607.01 357.02,644.55 379.9,576.58 323.03,594.11 371.44,538.37 289.65,524.1 
	372.19,494.42 293.56,435.97 "/>
<text transform="matrix(1 0 0 1 389.2432 537.9658)" class="st4 st5">Pop Corn</text>
<g id="XMLID_2_">
	<g>
		<polygon class="st6" points="341.29,232.23 282.95,242.65 279.44,204.9 284.56,192.87 300.01,191.12 282.82,180.86 267.28,137.99 
			327.41,163.61 		"/>
	</g>
	<g>
		<polygon class="st7" points="300.01,191.12 284.56,192.87 279.44,204.9 282.95,242.65 341.29,232.23 327.41,163.61 267.28,137.99 
			282.82,180.86 		"/>
	</g>
</g>
<g id="XMLID_29_">
	<g>
		<polygon class="st6" points="370.41,215.24 312.08,225.66 308.57,187.91 313.69,175.88 329.13,174.13 311.95,163.87 296.41,121 
			356.54,146.61 		"/>
	</g>
	<g>
		<polygon class="st7" points="329.13,174.13 313.69,175.88 308.57,187.91 312.08,225.66 370.41,215.24 356.54,146.61 296.41,121 
			311.95,163.87 		"/>
	</g>
</g>
<g id="XMLID_9_">
	<g>
		<polygon class="st6" points="540.32,171.55 481.99,181.97 478.47,144.22 483.6,132.19 499.04,130.44 481.86,120.18 466.32,77.31 
			526.44,102.92 		"/>
	</g>
	<g>
		<polygon class="st7" points="499.04,130.44 483.6,132.19 478.47,144.22 481.99,181.97 540.32,171.55 526.44,102.92 466.32,77.31 
			481.86,120.18 		"/>
	</g>
</g>
<g id="XMLID_24_">
	<g>
		<polygon class="st6" points="576.73,200.67 518.4,211.1 514.88,173.34 520.01,161.32 535.45,159.57 518.26,149.31 502.73,106.43 
			562.85,132.05 		"/>
	</g>
	<g>
		<polygon class="st7" points="535.45,159.57 520.01,161.32 514.88,173.34 518.4,211.1 576.73,200.67 562.85,132.05 502.73,106.43 
			518.26,149.31 		"/>
	</g>
</g>
<g id="XMLID_18_">
	<g>
		<polygon class="st6" points="744.21,130.28 685.88,140.71 682.36,102.95 687.49,90.93 702.93,89.18 685.74,78.92 670.21,36.04 
			730.33,61.66 		"/>
	</g>
	<g>
		<polygon class="st7" points="702.93,89.18 687.49,90.93 682.36,102.95 685.88,140.71 744.21,130.28 730.33,61.66 670.21,36.04 
			685.74,78.92 		"/>
	</g>
</g>
<g id="XMLID_3_">
	<g>
		<polygon class="st6" points="477.21,232.23 418.88,242.65 415.37,204.9 420.49,192.87 435.93,191.12 418.75,180.86 403.21,137.99 
			463.34,163.61 		"/>
	</g>
	<g>
		<polygon class="st7" points="435.93,191.12 420.49,192.87 415.37,204.9 418.88,242.65 477.21,232.23 463.34,163.61 403.21,137.99 
			418.75,180.86 		"/>
	</g>
</g>
<g id="XMLID_30_">
	<g>
		<polygon class="st6" points="448.08,215.24 389.75,225.66 386.24,187.91 391.36,175.88 406.81,174.13 389.62,163.87 374.08,121 
			434.21,146.61 		"/>
	</g>
	<g>
		<polygon class="st7" points="406.81,174.13 391.36,175.88 386.24,187.91 389.75,225.66 448.08,215.24 434.21,146.61 374.08,121 
			389.62,163.87 		"/>
	</g>
</g>
<g id="XMLID_13_">
	<g>
		<polygon class="st6" points="651.97,234.66 593.64,245.08 590.13,207.33 595.25,195.3 610.69,193.55 593.51,183.29 577.97,140.42 
			638.1,166.03 		"/>
	</g>
	<g>
		<polygon class="st7" points="610.69,193.55 595.25,195.3 590.13,207.33 593.64,245.08 651.97,234.66 638.1,166.03 577.97,140.42 
			593.51,183.29 		"/>
	</g>
</g>
<g id="XMLID_21_">
	<g>
		<polygon class="st6" points="889.84,171.55 831.51,181.97 828,144.22 833.12,132.19 848.56,130.44 831.38,120.18 815.84,77.31 
			875.97,102.92 		"/>
	</g>
	<g>
		<polygon class="st7" points="848.56,130.44 833.12,132.19 828,144.22 831.51,181.97 889.84,171.55 875.97,102.92 815.84,77.31 
			831.38,120.18 		"/>
	</g>
</g>
<g id="XMLID_5_">
	<g>
		<polygon class="st6" points="318.73,94.71 312.96,148.87 278.74,142.28 269.44,134.67 271.86,120.59 258.39,133.12 216.56,135.83 
			254.6,89.34 		"/>
	</g>
	<g>
		<polygon class="st7" points="271.86,120.59 269.44,134.67 278.74,142.28 312.96,148.87 318.73,94.71 254.6,89.34 216.56,135.83 
			258.39,133.12 		"/>
	</g>
</g>
<g id="XMLID_8_">
	<g>
		<polygon class="st6" points="580.88,191.79 575.1,245.96 540.88,239.37 531.58,231.76 534,217.68 520.53,230.21 478.7,232.92 
			516.74,186.43 		"/>
	</g>
	<g>
		<polygon class="st7" points="534,217.68 531.58,231.76 540.88,239.37 575.1,245.96 580.88,191.79 516.74,186.43 478.7,232.92 
			520.53,230.21 		"/>
	</g>
</g>
<g id="XMLID_16_">
	<g>
		<polygon class="st6" points="816.32,177.23 810.55,231.39 776.32,224.8 767.02,217.2 769.44,203.12 755.97,215.65 714.14,218.36 
			752.19,171.87 		"/>
	</g>
	<g>
		<polygon class="st7" points="769.44,203.12 767.02,217.2 776.32,224.8 810.55,231.39 816.32,177.23 752.19,171.87 714.14,218.36 
			755.97,215.65 		"/>
	</g>
</g>
<g id="XMLID_27_">
	<g>
		<polygon class="st6" points="862.44,131.11 856.66,185.28 822.44,178.69 813.14,171.08 815.56,157 802.09,169.53 760.26,172.24 
			798.3,125.75 		"/>
	</g>
	<g>
		<polygon class="st7" points="815.56,157 813.14,171.08 822.44,178.69 856.66,185.28 862.44,131.11 798.3,125.75 760.26,172.24 
			802.09,169.53 		"/>
	</g>
</g>
<g id="XMLID_17_">
	<g>
		<polygon class="st6" points="796.9,116.55 791.13,170.71 756.9,164.12 747.6,156.52 750.02,142.44 736.56,154.97 694.72,157.68 
			732.77,111.18 		"/>
	</g>
	<g>
		<polygon class="st7" points="750.02,142.44 747.6,156.52 756.9,164.12 791.13,170.71 796.9,116.55 732.77,111.18 694.72,157.68 
			736.56,154.97 		"/>
	</g>
</g>
<g id="XMLID_4_">
	<g>
		<polygon class="st6" points="415.82,191.79 410.05,245.96 375.83,239.37 366.53,231.76 368.95,217.68 355.48,230.21 
			313.65,232.92 351.69,186.43 		"/>
	</g>
	<g>
		<polygon class="st7" points="368.95,217.68 366.53,231.76 375.83,239.37 410.05,245.96 415.82,191.79 351.69,186.43 
			313.65,232.92 355.48,230.21 		"/>
	</g>
</g>
<g id="XMLID_19_">
	<g>
		<polygon class="st6" points="879.43,179.66 873.65,233.82 839.43,227.23 830.13,219.62 832.55,205.54 819.08,218.08 
			777.25,220.79 815.29,174.29 		"/>
	</g>
	<g>
		<polygon class="st7" points="832.55,205.54 830.13,219.62 839.43,227.23 873.65,233.82 879.43,179.66 815.29,174.29 
			777.25,220.79 819.08,218.08 		"/>
	</g>
</g>
<g id="XMLID_26_">
	<g>
		<polygon class="st6" points="940.11,167.52 934.33,221.69 900.11,215.1 890.81,207.49 893.23,193.41 879.76,205.94 837.93,208.65 
			875.98,162.16 		"/>
	</g>
	<g>
		<polygon class="st7" points="893.23,193.41 890.81,207.49 900.11,215.1 934.33,221.69 940.11,167.52 875.98,162.16 837.93,208.65 
			879.76,205.94 		"/>
	</g>
</g>
<g id="XMLID_20_">
	<g>
		<polygon class="st6" points="828.45,51.01 822.68,105.18 788.46,98.59 779.16,90.98 781.58,76.9 768.11,89.43 726.28,92.14 
			764.32,45.65 		"/>
	</g>
	<g>
		<polygon class="st7" points="781.58,76.9 779.16,90.98 788.46,98.59 822.68,105.18 828.45,51.01 764.32,45.65 726.28,92.14 
			768.11,89.43 		"/>
	</g>
</g>
<g id="XMLID_11_">
	<g>
		<polygon class="st6" points="1059.04,167.52 1053.27,221.69 1019.05,215.1 1009.75,207.49 1012.17,193.41 998.7,205.94 
			956.87,208.65 994.91,162.16 		"/>
	</g>
	<g>
		<polygon class="st7" points="1012.17,193.41 1009.75,207.49 1019.05,215.1 1053.27,221.69 1059.04,167.52 994.91,162.16 
			956.87,208.65 998.7,205.94 		"/>
	</g>
</g>
<g id="XMLID_6_">
	<g>
		<polygon class="st6" points="270.67,189.38 223.15,216.01 208.72,184.28 209.55,172.3 222.43,166.12 204.42,162.39 178,129.84 
			237.93,133.97 		"/>
	</g>
	<g>
		<polygon class="st7" points="222.43,166.12 209.55,172.3 208.72,184.28 223.15,216.01 270.67,189.38 237.93,133.97 178,129.84 
			204.42,162.39 		"/>
	</g>
</g>
<g id="XMLID_22_">
	<g>
		<polygon class="st6" points="972.14,218.5 924.63,245.14 910.2,213.41 911.02,201.42 923.91,195.25 905.89,191.52 879.47,158.97 
			939.41,163.09 		"/>
	</g>
	<g>
		<polygon class="st7" points="923.91,195.25 911.02,201.42 910.2,213.41 924.63,245.14 972.14,218.5 939.41,163.09 879.47,158.97 
			905.89,191.52 		"/>
	</g>
</g>
<g id="XMLID_15_">
	<g>
		<polygon class="st6" points="724.56,220.93 677.05,247.56 662.62,215.84 663.44,203.85 676.33,197.68 658.31,193.95 631.9,161.4 
			691.83,165.52 		"/>
	</g>
	<g>
		<polygon class="st7" points="676.33,197.68 663.44,203.85 662.62,215.84 677.05,247.56 724.56,220.93 691.83,165.52 631.9,161.4 
			658.31,193.95 		"/>
	</g>
</g>
<g id="XMLID_28_">
	<g>
		<polygon class="st6" points="794.95,245.2 747.44,271.84 733.01,240.11 733.83,228.12 746.72,221.95 728.7,218.22 702.29,185.67 
			762.22,189.79 		"/>
	</g>
	<g>
		<polygon class="st7" points="746.72,221.95 733.83,228.12 733.01,240.11 747.44,271.84 794.95,245.2 762.22,189.79 702.29,185.67 
			728.7,218.22 		"/>
	</g>
</g>
<g id="XMLID_14_">
	<g>
		<polygon class="st6" points="707.57,145.69 660.06,172.32 645.63,140.59 646.45,128.61 659.34,122.43 641.32,118.7 614.9,86.15 
			674.84,90.28 		"/>
	</g>
	<g>
		<polygon class="st7" points="659.34,122.43 646.45,128.61 645.63,140.59 660.06,172.32 707.57,145.69 674.84,90.28 614.9,86.15 
			641.32,118.7 		"/>
	</g>
</g>
<g id="XMLID_12_">
	<g>
		<polygon class="st6" points="615.34,121.41 567.82,148.05 553.39,116.32 554.22,104.33 567.1,98.16 549.09,94.43 522.67,61.88 
			582.6,66 		"/>
	</g>
	<g>
		<polygon class="st7" points="567.1,98.16 554.22,104.33 553.39,116.32 567.82,148.05 615.34,121.41 582.6,66 522.67,61.88 
			549.09,94.43 		"/>
	</g>
</g>
<g id="XMLID_7_">
	<g>
		<polygon class="st6" points="411.45,165.1 363.93,191.74 349.5,160.01 350.33,148.02 363.21,141.85 345.2,138.12 318.78,105.57 
			378.71,109.69 		"/>
	</g>
	<g>
		<polygon class="st7" points="363.21,141.85 350.33,148.02 349.5,160.01 363.93,191.74 411.45,165.1 378.71,109.69 318.78,105.57 
			345.2,138.12 		"/>
	</g>
</g>
<g id="XMLID_10_">
	<g>
		<polygon class="st6" points="486.69,135.98 439.18,162.61 424.75,130.88 425.57,118.9 438.46,112.72 420.44,108.99 394.02,76.44 
			453.96,80.57 		"/>
	</g>
	<g>
		<polygon class="st7" points="438.46,112.72 425.57,118.9 424.75,130.88 439.18,162.61 486.69,135.98 453.96,80.57 394.02,76.44 
			420.44,108.99 		"/>
	</g>
</g>
<g id="XMLID_23_">
	<g>
		<polygon class="st6" points="945.44,128.69 897.93,155.33 883.5,123.6 884.32,111.62 897.21,105.44 879.19,101.71 852.77,69.16 
			912.71,73.29 		"/>
	</g>
	<g>
		<polygon class="st7" points="897.21,105.44 884.32,111.62 883.5,123.6 897.93,155.33 945.44,128.69 912.71,73.29 852.77,69.16 
			879.19,101.71 		"/>
	</g>
</g>
<g id="XMLID_25_">
	<g>
		<polygon class="st6" points="991.56,174.81 944.05,201.45 929.62,169.72 930.44,157.73 943.32,151.56 925.31,147.83 
			898.89,115.28 958.83,119.4 		"/>
	</g>
	<g>
		<polygon class="st7" points="943.32,151.56 930.44,157.73 929.62,169.72 944.05,201.45 991.56,174.81 958.83,119.4 898.89,115.28 
			925.31,147.83 		"/>
	</g>
</g>
</svg>
