<?xml version="1.0" encoding="utf-8"?>
<!-- Generator: Adobe Illustrator 23.0.0, SVG Export Plug-In . SVG Version: 6.00 Build 0)  -->
<svg version="1.1" id="Layer_1" xmlns="http://www.w3.org/2000/svg" xmlns:xlink="http://www.w3.org/1999/xlink" x="0px" y="0px"
	 viewBox="0 0 1280 1024" style="enable-background:new 0 0 1280 1024;" xml:space="preserve">
<style type="text/css">
	.st0{fill:#631AD6;}
	.st1{fill:none;stroke:#000000;stroke-miterlimit:10;}
</style>
<g id="XMLID_1_">
	<g>
		<path d="M725.27,475.45c-8.9,2.46-16.45,15.01-20.37,32.5c2.6-83.51-47.65-141.54-86.26-142.45
			c-39.33-0.94-93.76,56.76-92.41,143.05c-3.73-17.09-10.89-29.58-19.43-32.75c16.06-80.47,71.05-131.29,112.7-130.3
			C660.2,346.47,711.1,397.46,725.27,475.45z"/>
		<path class="st0" d="M728.06,496.01c-9.46,0.54-17.06,18.22-17.06,39.94c0,22.07,7.84,39.96,17.5,39.96s17.5-17.89,17.5-39.96
			c0-22.06-7.84-39.95-17.5-39.95C728.35,496,728.21,496,728.06,496.01z M704.9,507.96L704.9,507.96
			c3.92-17.5,11.47-30.05,20.37-32.51c1.06-0.3,2.14-0.45,3.23-0.45c14.64,0,26.5,27.09,26.5,60.5S743.14,596,728.5,596
			S702,568.91,702,535.5C702,525.58,703.04,516.22,704.9,507.96z"/>
		<path d="M728.06,496.01c0.15-0.01,0.29-0.01,0.44-0.01c9.66,0,17.5,17.89,17.5,39.95c0,22.07-7.84,39.96-17.5,39.96
			S711,558.02,711,535.95C711,514.23,718.6,496.55,728.06,496.01z"/>
		<path class="st0" d="M503.67,496.09c-0.39-0.06-0.78-0.09-1.17-0.09c-9.66,0-17.5,17.89-17.5,39.95c0,22.07,7.84,39.96,17.5,39.96
			c9.66,0,17.5-17.89,17.5-39.96C520,514.79,512.78,497.46,503.67,496.09z M526.23,508.55c1.78,8.12,2.77,17.27,2.77,26.95
			c0,33.41-11.86,60.5-26.5,60.5S476,568.91,476,535.5s11.86-60.5,26.5-60.5c1.46,0,2.9,0.27,4.3,0.8
			C515.34,478.97,522.5,491.46,526.23,508.55z"/>
		<path d="M503.67,496.09c9.11,1.37,16.33,18.7,16.33,39.86c0,22.07-7.84,39.96-17.5,39.96c-9.66,0-17.5-17.89-17.5-39.96
			c0-22.06,7.84-39.95,17.5-39.95C502.89,496,503.28,496.03,503.67,496.09z"/>
	</g>
	<g>
		<path class="st1" d="M506.8,475.8c16.06-80.47,71.05-131.29,112.7-130.3c40.7,0.97,91.6,51.96,105.77,129.95"/>
		<path class="st1" d="M526.23,508.55c1.78,8.12,2.77,17.27,2.77,26.95c0,33.41-11.86,60.5-26.5,60.5S476,568.91,476,535.5
			s11.86-60.5,26.5-60.5c1.46,0,2.9,0.27,4.3,0.8C515.34,478.97,522.5,491.46,526.23,508.55z"/>
		<path class="st1" d="M520,535.95c0,22.07-7.84,39.96-17.5,39.96c-9.66,0-17.5-17.89-17.5-39.96c0-22.06,7.84-39.95,17.5-39.95
			c0.39,0,0.78,0.03,1.17,0.09C512.78,497.46,520,514.79,520,535.95z"/>
		<path class="st1" d="M704.9,507.95c3.92-17.49,11.47-30.04,20.37-32.5c1.06-0.3,2.14-0.45,3.23-0.45c14.64,0,26.5,27.09,26.5,60.5
			S743.14,596,728.5,596S702,568.91,702,535.5C702,525.58,703.04,516.22,704.9,507.95"/>
		<path class="st1" d="M746,535.95c0,22.07-7.84,39.96-17.5,39.96S711,558.02,711,535.95c0-21.72,7.6-39.4,17.06-39.94
			c0.15-0.01,0.29-0.01,0.44-0.01C738.16,496,746,513.89,746,535.95z"/>
		<path class="st1" d="M526.44,515.24c-0.11-2.25-0.18-4.48-0.21-6.69c-1.35-86.29,53.08-143.99,92.41-143.05
			c38.61,0.91,88.86,58.94,86.26,142.45v0.01c-0.07,2.41-0.18,4.83-0.35,7.28"/>
	</g>
</g>
</svg>
