<?xml version="1.0" encoding="utf-8"?>
<!-- Generator: Adobe Illustrator 23.0.0, SVG Export Plug-In . SVG Version: 6.00 Build 0)  -->
<svg version="1.1" id="Layer_1" xmlns="http://www.w3.org/2000/svg" xmlns:xlink="http://www.w3.org/1999/xlink" x="0px" y="0px"
	 viewBox="0 0 1280 1024" style="enable-background:new 0 0 1280 1024;" xml:space="preserve">
<style type="text/css">
	.st0{fill:#631AD6;}
	.st1{fill:#FFFFFF;}
	.st2{fill:#FFFFFF;stroke:#000000;stroke-miterlimit:10;}
	.st3{fill:none;stroke:#000000;stroke-miterlimit:10;}
</style>
<g>
	<path class="st0" d="M348.05,721.58H131V155.04h217.05c0,145.42,0,290.85,0,436.27C348.05,634.73,348.05,678.16,348.05,721.58z"/>
</g>
<g>
	<rect x="473.13" y="155.04" class="st0" width="595.98" height="384.44"/>
</g>
<g>
	<rect x="574.3" y="721.58" class="st0" width="408.35" height="11.04"/>
</g>
<g>
	<rect x="519.12" y="193.66" class="st1" width="515.04" height="316.38"/>
</g>
<g>
	<rect x="148.05" y="144.5" class="st1" width="28.43" height="10.04"/>
	<path d="M175.99,145v9.04h-27.43V145H175.99 M176.99,144h-29.43v11.04h29.43V144L176.99,144z"/>
</g>
<g>
	<rect x="131" y="217.58" class="st1" width="217.05" height="7.36"/>
</g>
<g>
	<rect x="131" y="326.1" class="st1" width="217.05" height="11.04"/>
</g>
<g>
	<rect x="176.99" y="539.48" class="st1" width="121.4" height="160.03"/>
</g>
<g>
	<circle class="st1" cx="237.69" cy="438.31" r="44.15"/>
</g>
<path class="st2" d="M1143.61,641.57"/>
<path class="st2" d="M1149.12,636.05"/>
<path class="st2" d="M348.97,591.9"/>
<ellipse class="st0" cx="1135.33" cy="793.32" rx="26.67" ry="54.26"/>
<g>
	<path class="st1" d="M1134.41,791.38c-0.62-2.44-1.34-11.57-1.34-25.66c0-14.09,0.72-23.22,1.34-25.66
		c0.62,2.44,1.34,11.57,1.34,25.66S1135.03,788.94,1134.41,791.38z"/>
	<path d="M1134.41,743.41c0.45,4.27,0.84,12.01,0.84,22.32s-0.39,18.04-0.84,22.32c-0.45-4.27-0.84-12.01-0.84-22.32
		S1133.96,747.69,1134.41,743.41 M1134.41,739.06c-1.02,0-1.84,11.94-1.84,26.67c0,14.73,0.82,26.67,1.84,26.67
		s1.84-11.94,1.84-26.67C1136.25,751,1135.42,739.06,1134.41,739.06L1134.41,739.06z"/>
</g>
<g>
	<rect x="736.17" y="539.48" class="st0" width="71.74" height="182.1"/>
</g>
<rect x="545.79" y="764.81" class="st0" width="435.94" height="171.07"/>
<rect x="554.99" y="774" class="st3" width="25.75" height="25.75"/>
<rect x="589.94" y="774" class="st3" width="25.75" height="25.75"/>
<rect x="623.05" y="774" class="st3" width="25.75" height="25.75"/>
<rect x="656.16" y="774" class="st3" width="25.75" height="25.75"/>
<rect x="692.95" y="774" class="st3" width="25.75" height="25.75"/>
<rect x="727.89" y="774" class="st3" width="25.75" height="25.75"/>
<rect x="764.68" y="774" class="st3" width="25.75" height="25.75"/>
<rect x="795.95" y="774" class="st3" width="25.75" height="25.75"/>
<rect x="832.74" y="774" class="st3" width="25.75" height="25.75"/>
<rect x="865.85" y="774" class="st3" width="25.75" height="25.75"/>
<rect x="900.8" y="774" class="st3" width="25.75" height="25.75"/>
<rect x="937.59" y="774" class="st3" width="25.75" height="25.75"/>
<rect x="560.51" y="808.95" class="st3" width="25.75" height="25.75"/>
<rect x="595.46" y="808.95" class="st3" width="25.75" height="25.75"/>
<rect x="628.57" y="808.95" class="st3" width="25.75" height="25.75"/>
<rect x="661.68" y="808.95" class="st3" width="25.75" height="25.75"/>
<rect x="698.46" y="808.95" class="st3" width="25.75" height="25.75"/>
<rect x="733.41" y="808.95" class="st3" width="25.75" height="25.75"/>
<rect x="770.2" y="808.95" class="st3" width="25.75" height="25.75"/>
<rect x="801.47" y="808.95" class="st3" width="25.75" height="25.75"/>
<rect x="838.26" y="808.95" class="st3" width="25.75" height="25.75"/>
<rect x="871.37" y="808.95" class="st3" width="25.75" height="25.75"/>
<rect x="906.32" y="808.95" class="st3" width="25.75" height="25.75"/>
<rect x="943.11" y="808.95" class="st3" width="25.75" height="25.75"/>
<rect x="558.67" y="878.85" class="st3" width="25.75" height="25.75"/>
<rect x="593.62" y="878.85" class="st3" width="25.75" height="25.75"/>
<rect x="626.73" y="878.85" class="st3" width="25.75" height="25.75"/>
<rect x="659.84" y="878.85" class="st3" width="25.75" height="25.75"/>
<rect x="696.62" y="878.85" class="st3" width="25.75" height="25.75"/>
<rect x="731.57" y="878.85" class="st3" width="25.75" height="25.75"/>
<rect x="768.36" y="878.85" class="st3" width="25.75" height="25.75"/>
<rect x="799.63" y="878.85" class="st3" width="25.75" height="25.75"/>
<rect x="836.42" y="878.85" class="st3" width="25.75" height="25.75"/>
<rect x="869.53" y="878.85" class="st3" width="25.75" height="25.75"/>
<rect x="904.48" y="878.85" class="st3" width="25.75" height="25.75"/>
<rect x="941.27" y="878.85" class="st3" width="25.75" height="25.75"/>
<rect x="560.51" y="843.9" class="st3" width="25.75" height="25.75"/>
<rect x="595.46" y="843.9" class="st3" width="25.75" height="25.75"/>
<rect x="628.57" y="843.9" class="st3" width="25.75" height="25.75"/>
<rect x="661.68" y="843.9" class="st3" width="25.75" height="25.75"/>
<rect x="698.46" y="843.9" class="st3" width="25.75" height="25.75"/>
<rect x="733.41" y="843.9" class="st3" width="25.75" height="25.75"/>
<rect x="770.2" y="843.9" class="st3" width="25.75" height="25.75"/>
<rect x="801.47" y="843.9" class="st3" width="25.75" height="25.75"/>
<rect x="838.26" y="843.9" class="st3" width="25.75" height="25.75"/>
<rect x="871.37" y="843.9" class="st3" width="25.75" height="25.75"/>
<rect x="906.32" y="843.9" class="st3" width="25.75" height="25.75"/>
<rect x="943.11" y="843.9" class="st3" width="25.75" height="25.75"/>
</svg>
