<?xml version="1.0" encoding="utf-8"?>
<!-- Generator: Adobe Illustrator 23.0.0, SVG Export Plug-In . SVG Version: 6.00 Build 0)  -->
<svg version="1.1" id="Layer_1" xmlns="http://www.w3.org/2000/svg" xmlns:xlink="http://www.w3.org/1999/xlink" x="0px" y="0px"
	 viewBox="0 0 1280 1024" style="enable-background:new 0 0 1280 1024;" xml:space="preserve">
<style type="text/css">
	.st0{fill:#631AD6;}
	.st1{fill:#FFFFFF;stroke:#631AD6;stroke-miterlimit:10;}
</style>
<g>
	<path class="st0" d="M348.32,687.61l-1.17-1.01c-4.48-3.87-4.98-10.65-1.11-15.13l345.52-399.98c3.87-4.48,10.65-4.98,15.13-1.11
		l1.17,1.01c4.48,3.87,4.98,10.65,1.11,15.13L363.44,686.51C359.57,690.99,352.8,691.48,348.32,687.61z"/>
</g>
<g>
	<rect x="700" y="252" transform="matrix(0.6537 -0.7567 0.7567 0.6537 51.5376 632.6242)" class="st0" width="34" height="16"/>
</g>
<path class="st1" d="M684.5,280.5c-9.12-11.34,2.16-23.38,10-35c7.08-10.49,32.75-5.64,31-6"/>
<path class="st0" d="M811.9,332.1l-73.98-62.85c-4.42-3.75-4.96-10.38-1.2-14.8l5.51-6.49c3.75-4.42,10.38-4.96,14.8-1.2
	l73.98,62.85c4.42,3.75,4.96,10.38,1.2,14.8l-5.51,6.49C822.95,335.31,816.32,335.85,811.9,332.1z"/>
<rect x="722.61" y="239.98" transform="matrix(0.7621 0.6474 -0.6474 0.7621 332.3065 -415.5017)" class="st0" width="18" height="9"/>
</svg>
