<?xml version="1.0" encoding="utf-8"?>
<!-- Generator: Adobe Illustrator 23.0.0, SVG Export Plug-In . SVG Version: 6.00 Build 0)  -->
<svg version="1.1" id="Layer_1" xmlns="http://www.w3.org/2000/svg" xmlns:xlink="http://www.w3.org/1999/xlink" x="0px" y="0px"
	 viewBox="0 0 1280 1024" style="enable-background:new 0 0 1280 1024;" xml:space="preserve">
<style type="text/css">
	.st0{fill:#631AD6;}
	.st1{fill:none;stroke:#000000;stroke-miterlimit:10;}
	.st2{fill:#FFFFFF;}
	.st3{font-family:'MyriadPro-Regular';}
	.st4{font-size:35.4439px;}
	.st5{font-size:29.9489px;}
</style>
<g id="XMLID_1_">
	<g>
		<path class="st0" d="M786,210.97v548.06c0,22.07-17.9,39.97-39.97,39.97H547.97C525.9,799,508,781.1,508,759.03V210.97
			c0-22.07,17.9-39.97,39.97-39.97h198.06C768.1,171,786,188.9,786,210.97z"/>
	</g>
	<g>
		<path class="st1" d="M746.03,799H547.97C525.9,799,508,781.1,508,759.03V210.97c0-22.07,17.9-39.97,39.97-39.97h198.06
			c22.07,0,39.97,17.9,39.97,39.97v548.06C786,781.1,768.1,799,746.03,799z"/>
	</g>
</g>
<g>
	<rect x="544.5" y="209.5" width="36" height="43"/>
	<path d="M580,210v42h-35v-42H580 M581,209h-37v44h37V209L581,209z"/>
</g>
<g>
	<circle class="st2" cx="562" cy="231" r="15.5"/>
	<path d="M562,216c8.27,0,15,6.73,15,15s-6.73,15-15,15s-15-6.73-15-15S553.73,216,562,216 M562,215c-8.84,0-16,7.16-16,16
		s7.16,16,16,16s16-7.16,16-16S570.84,215,562,215L562,215z"/>
</g>
<g>
	<rect x="559.5" y="212.5" class="st2" width="5" height="14"/>
	<path d="M564,213v13h-4v-13H564 M565,212h-6v15h6V212L565,212z"/>
</g>
<g>
	<rect x="559.5" y="462.5" width="56" height="149"/>
	<path d="M615,463v148h-55V463H615 M616,462h-57v150h57V462L616,462z"/>
</g>
<g>
	<rect x="681.5" y="462.5" width="56" height="149"/>
	<path d="M737,463v148h-55V463H737 M738,462h-57v150h57V462L738,462z"/>
</g>
<g>
	<rect x="551.5" y="644.5" width="36" height="16"/>
	<path d="M587,645v15h-35v-15H587 M588,644h-37v17h37V644L588,644z"/>
</g>
<g>
	<rect x="607.5" y="644.5" width="36" height="16"/>
	<path d="M643,645v15h-35v-15H643 M644,644h-37v17h37V644L644,644z"/>
</g>
<g>
	<rect x="668.5" y="644.5" width="36" height="16"/>
	<path d="M704,645v15h-35v-15H704 M705,644h-37v17h37V644L705,644z"/>
</g>
<g>
	<rect x="732.5" y="644.5" width="36" height="16"/>
	<path d="M768,645v15h-35v-15H768 M769,644h-37v17h37V644L769,644z"/>
</g>
<g>
	<rect x="551.5" y="673.5" width="36" height="16"/>
	<path d="M587,674v15h-35v-15H587 M588,673h-37v17h37V673L588,673z"/>
</g>
<g>
	<rect x="607.5" y="673.5" width="36" height="16"/>
	<path d="M643,674v15h-35v-15H643 M644,673h-37v17h37V673L644,673z"/>
</g>
<g>
	<rect x="668.5" y="673.5" width="36" height="16"/>
	<path d="M704,674v15h-35v-15H704 M705,673h-37v17h37V673L705,673z"/>
</g>
<g>
	<rect x="732.5" y="673.5" width="36" height="16"/>
	<path d="M768,674v15h-35v-15H768 M769,673h-37v17h37V673L769,673z"/>
</g>
<g>
	<rect x="551.5" y="706.5" width="36" height="16"/>
	<path d="M587,707v15h-35v-15H587 M588,706h-37v17h37V706L588,706z"/>
</g>
<g>
	<rect x="607.5" y="706.5" width="36" height="16"/>
	<path d="M643,707v15h-35v-15H643 M644,706h-37v17h37V706L644,706z"/>
</g>
<g>
	<rect x="668.5" y="706.5" width="36" height="16"/>
	<path d="M704,707v15h-35v-15H704 M705,706h-37v17h37V706L705,706z"/>
</g>
<g>
	<rect x="732.5" y="706.5" width="36" height="16"/>
	<path d="M768,707v15h-35v-15H768 M769,706h-37v17h37V706L769,706z"/>
</g>
<g>
	<rect x="551.5" y="739.5" width="36" height="16"/>
	<path d="M587,740v15h-35v-15H587 M588,739h-37v17h37V739L588,739z"/>
</g>
<g>
	<rect x="607.5" y="739.5" width="36" height="16"/>
	<path d="M643,740v15h-35v-15H643 M644,739h-37v17h37V739L644,739z"/>
</g>
<g>
	<rect x="668.5" y="739.5" width="36" height="16"/>
	<path d="M704,740v15h-35v-15H704 M705,739h-37v17h37V739L705,739z"/>
</g>
<g>
	<rect x="732.5" y="739.5" width="36" height="16"/>
	<path d="M768,740v15h-35v-15H768 M769,739h-37v17h37V739L769,739z"/>
</g>
<g>
	<rect x="550.5" y="768.5" width="36" height="16"/>
	<path d="M586,769v15h-35v-15H586 M587,768h-37v17h37V768L587,768z"/>
</g>
<g>
	<rect x="606.5" y="768.5" width="36" height="16"/>
	<path d="M642,769v15h-35v-15H642 M643,768h-37v17h37V768L643,768z"/>
</g>
<g>
	<rect x="667.5" y="768.5" width="36" height="16"/>
	<path d="M703,769v15h-35v-15H703 M704,768h-37v17h37V768L704,768z"/>
</g>
<g>
	<rect x="731.5" y="768.5" width="36" height="16"/>
	<path d="M767,769v15h-35v-15H767 M768,768h-37v17h37V768L768,768z"/>
</g>
<g id="XMLID_2_">
	<g>
		<rect x="725" y="424" width="37" height="17"/>
		<rect x="725" y="397" width="37" height="17"/>
		<rect x="725" y="365" width="37" height="17"/>
		<rect x="725" y="332" width="37" height="17"/>
		<rect x="725" y="300" width="37" height="17"/>
		<rect x="725" y="268" width="37" height="17"/>
		<rect x="668" y="424" width="37" height="17"/>
		<rect x="668" y="397" width="37" height="17"/>
		<rect x="668" y="365" width="37" height="17"/>
		<rect x="668" y="332" width="37" height="17"/>
		<rect x="668" y="300" width="37" height="17"/>
		<rect x="668" y="268" width="37" height="17"/>
		<rect x="610" y="424" width="37" height="17"/>
		<rect x="610" y="397" width="37" height="17"/>
		<rect x="610" y="365" width="37" height="17"/>
		<rect x="610" y="332" width="37" height="17"/>
		<rect x="610" y="300" width="37" height="17"/>
		<rect x="607" y="268" width="37" height="17"/>
		<rect x="551" y="424" width="37" height="17"/>
		<rect x="551" y="397" width="37" height="17"/>
		<rect x="551" y="365" width="37" height="17"/>
		<rect x="551" y="332" width="37" height="17"/>
		<rect x="551" y="300" width="37" height="17"/>
		<rect x="551" y="268" width="37" height="17"/>
	</g>
	<g>
		<rect x="551" y="268" class="st1" width="37" height="17"/>
		<rect x="551" y="300" class="st1" width="37" height="17"/>
		<rect x="551" y="332" class="st1" width="37" height="17"/>
		<rect x="551" y="365" class="st1" width="37" height="17"/>
		<rect x="610" y="365" class="st1" width="37" height="17"/>
		<rect x="668" y="365" class="st1" width="37" height="17"/>
		<rect x="725" y="365" class="st1" width="37" height="17"/>
		<rect x="551" y="397" class="st1" width="37" height="17"/>
		<rect x="610" y="397" class="st1" width="37" height="17"/>
		<rect x="668" y="397" class="st1" width="37" height="17"/>
		<rect x="725" y="397" class="st1" width="37" height="17"/>
		<rect x="551" y="424" class="st1" width="37" height="17"/>
		<rect x="610" y="424" class="st1" width="37" height="17"/>
		<rect x="668" y="424" class="st1" width="37" height="17"/>
		<rect x="725" y="424" class="st1" width="37" height="17"/>
		<rect x="610" y="332" class="st1" width="37" height="17"/>
		<rect x="668" y="332" class="st1" width="37" height="17"/>
		<rect x="725" y="332" class="st1" width="37" height="17"/>
		<rect x="610" y="300" class="st1" width="37" height="17"/>
		<rect x="668" y="300" class="st1" width="37" height="17"/>
		<rect x="725" y="300" class="st1" width="37" height="17"/>
		<rect x="607" y="268" class="st1" width="37" height="17"/>
		<rect x="668" y="268" class="st1" width="37" height="17"/>
		<rect x="725" y="268" class="st1" width="37" height="17"/>
	</g>
</g>
<text transform="matrix(1.0904 0 0 1 562.3867 545.1387)" class="st2 st3 st4">CH</text>
<text transform="matrix(1 0 0 1 686.5156 545.6367)" class="st2 st3 st5">VOL</text>
</svg>
