<svg version="1.1" id="el_HyfpEpI3m" xmlns="http://www.w3.org/2000/svg" xmlns:xlink="http://www.w3.org/1999/xlink" x="0px" y="0px" viewBox="0 0 600 600" style="enable-background:new 0 0 1280 1024;" xml:space="preserve"><style>@-webkit-keyframes el_Skmz6EaL3X_HJdQLp82Q_Animation{0%{-webkit-transform: translate(274.2699966430664px, 405.5299987792969px) rotate(0deg) translate(-274.2699966430664px, -405.5299987792969px);transform: translate(274.2699966430664px, 405.5299987792969px) rotate(0deg) translate(-274.2699966430664px, -405.5299987792969px);}100%{-webkit-transform: translate(274.2699966430664px, 405.5299987792969px) rotate(20deg) translate(-274.2699966430664px, -405.5299987792969px);transform: translate(274.2699966430664px, 405.5299987792969px) rotate(20deg) translate(-274.2699966430664px, -405.5299987792969px);}}@keyframes el_Skmz6EaL3X_HJdQLp82Q_Animation{0%{-webkit-transform: translate(274.2699966430664px, 405.5299987792969px) rotate(0deg) translate(-274.2699966430664px, -405.5299987792969px);transform: translate(274.2699966430664px, 405.5299987792969px) rotate(0deg) translate(-274.2699966430664px, -405.5299987792969px);}100%{-webkit-transform: translate(274.2699966430664px, 405.5299987792969px) rotate(20deg) translate(-274.2699966430664px, -405.5299987792969px);transform: translate(274.2699966430664px, 405.5299987792969px) rotate(20deg) translate(-274.2699966430664px, -405.5299987792969px);}}@-webkit-keyframes el_Skmz6EaL3X_r1-AN68h7_Animation{0%{-webkit-transform: translate(274.2699966430664px, 405.5299987792969px) translate(-274.2699966430664px, -405.5299987792969px) translate(0px, 0px);transform: translate(274.2699966430664px, 405.5299987792969px) translate(-274.2699966430664px, -405.5299987792969px) translate(0px, 0px);}100%{-webkit-transform: translate(274.2699966430664px, 405.5299987792969px) translate(-274.2699966430664px, -405.5299987792969px) translate(0px, 70px);transform: translate(274.2699966430664px, 405.5299987792969px) translate(-274.2699966430664px, -405.5299987792969px) translate(0px, 70px);}}@keyframes el_Skmz6EaL3X_r1-AN68h7_Animation{0%{-webkit-transform: translate(274.2699966430664px, 405.5299987792969px) translate(-274.2699966430664px, -405.5299987792969px) translate(0px, 0px);transform: translate(274.2699966430664px, 405.5299987792969px) translate(-274.2699966430664px, -405.5299987792969px) translate(0px, 0px);}100%{-webkit-transform: translate(274.2699966430664px, 405.5299987792969px) translate(-274.2699966430664px, -405.5299987792969px) translate(0px, 70px);transform: translate(274.2699966430664px, 405.5299987792969px) translate(-274.2699966430664px, -405.5299987792969px) translate(0px, 70px);}}#el_HyfpEpI3m *{-webkit-animation-duration: 3s;animation-duration: 3s;-webkit-animation-iteration-count: infinite;animation-iteration-count: infinite;-webkit-animation-timing-function: cubic-bezier(0, 0, 1, 1);animation-timing-function: cubic-bezier(0, 0, 1, 1);}#el_Sy-f6N6Ih7{fill: #631AD6;}#el_Skmz6EaL3X{fill: #631AD6;-webkit-transform: matrix(0.9371, -0.3489, 0.3489, 0.9371, -126.2037, 85.4481);transform: matrix(0.9371, -0.3489, 0.3489, 0.9371, -126.2037, 85.4481);}#el_r14f64pU2Q{fill: #631AD6;}#el_S1rzaNTI3Q{fill: #631AD6;}#el_HJIG6N6U2Q{fill: #631AD6;}#el_B1uGpNpUnX{fill: #FFFFFF;}#el_SkcG6N6Inm{fill: #FFFFFF;}#el_BJ3faET8nm{fill: #FFFFFF;}#el_Skmz6EaL3X_r1-AN68h7{-webkit-animation-name: el_Skmz6EaL3X_r1-AN68h7_Animation;animation-name: el_Skmz6EaL3X_r1-AN68h7_Animation;}#el_Skmz6EaL3X_HJdQLp82Q{-webkit-animation-name: el_Skmz6EaL3X_HJdQLp82Q_Animation;animation-name: el_Skmz6EaL3X_HJdQLp82Q_Animation;}</style>

<g id="el_Bkgfp4TInX">
	<rect x="84.61" y="439.57" width="200.39" height="140.11" id="el_Sy-f6N6Ih7"/>
</g>
<g id="el_SJGzT4pLhm">
	
		<g id="el_Skmz6EaL3X_r1-AN68h7" data-animator-group="true" data-animator-type="0"><g id="el_Skmz6EaL3X_HJdQLp82Q" data-animator-group="true" data-animator-type="1"><rect x="73.88" y="380.53" width="200.39" height="25" id="el_Skmz6EaL3X"/></g></g>
</g>
<line x1="127.7" y1="423.29" x2="127.7" y2="439.57" id="el_r14f64pU2Q"/>
<path d="M123.55,420.79c-1.31-1.61-4.69-1-4.92,1.73c-0.05,0.56-0.09,1.12-0.14,1.68c-0.31-0.03-0.63-0.01-0.94,0.06&#10;&#9;c-0.71-0.35-1.54-0.39-2.26-0.1c-0.22-0.18-0.46-0.32-0.71-0.42c0-0.15,0-0.31,0-0.46c0.02-3.49-5.17-3.47-5.42-0.07&#10;&#9;c-1.08,0.59-2.04,1.59-2.9,2.6c-0.34-0.12-0.71-0.21-1.11-0.26c-3.11-0.4-6.32,2.21-8.69,3.9c-3.36,2.39-6.67,4.86-10.01,7.29&#10;&#9;c-1.6,1.17-1.89,3.58,0,4.69c0.98,0.57,1.99,1.03,3.05,1.33c-0.03,0.89-0.03,1.75-0.02,2.54c0.03,3.49,5.46,3.5,5.43,0&#10;&#9;c-0.01-0.7-0.01-1.43,0.01-2.17c0.29,0.14,0.62,0.39,0.89,0.48c1.12,0.39,2.48,0.45,3.85,0.24c1.46,2.39,3.61,4.42,6.55,2.8&#10;&#9;c1.78-0.98,2.79-2.95,3.28-5.01c0.09,0.25,0.19,0.48,0.33,0.67c0.02,0.55,0.04,1.1,0.05,1.66c0.11,3.37,4.8,3.46,5.37,0.39&#10;&#9;c1.12,1.31,3.3,1.43,4.28,0.23c0,0,0,0,0,0c0.07,0.15,0.16,0.27,0.26,0.4c0.02,0.18,0.04,0.36,0.06,0.54&#10;&#9;c0.32,3.02,4.54,3.42,5.32,1.12c1.58,0.49,3.62-0.34,3.62-2.49v-22.28C128.77,418.81,124.56,418.45,123.55,420.79z" id="el_S1rzaNTI3Q"/>
<path d="M181.99,465.43c-0.41-0.73-1.16-1.27-2.26-1.27H164.6c-1.09,0-1.84,0.53-2.25,1.26H136c-3.49,0-3.5,5.43,0,5.43&#10;&#9;h45.83C185.27,470.86,185.33,465.6,181.99,465.43z" id="el_HJIG6N6U2Q"/>
<g id="el_rywfTV6LhX">
	<rect x="151.4" y="439.57" width="5.97" height="64.08" id="el_B1uGpNpUnX"/>
</g>
<g id="el_B1KGpVaLnQ">
	<rect x="224.18" y="439.57" width="4.89" height="64.08" id="el_SkcG6N6Inm"/>
</g>
<g id="el_r1jGaVTLh7">
	<rect x="84.06" y="503.65" width="200.94" height="4.89" id="el_BJ3faET8nm"/>
</g>
</svg>